<?xml version="1.0" standalone="no"?> <!DOCTYPE svg PUBLIC "-//W3C//DTD SVG 1.0//EN" "http://www.w3.org/TR/2001/REC-SVG-20010904/DTD/svg10.dtd" > <svg xmlns="http://www.w3.org/2000/svg" width="100%" height="100%">
<defs >
<font horiz-adv-x="234" ><font-face
    font-family="A DAY WITHOUT SUN"
    units-per-em="1000"
    panose-1="2 0 5 6 0 0 0 2 0 4"
    ascent="740"
    descent="-360"
    alphabetic="0" />
<missing-glyph horiz-adv-x="500" d="M362 171Q341 153 315 142T258 131Q228 131 202 142T155 171H362ZM143 183Q104 226 104 286Q104 315 113 339T139 384H344L143 183ZM155 401Q176 420 202 430T258 441Q288 441 314 431T361 401H155ZM402 343Q413 317 413 286Q413
258 404 233T377 187H172L373 390Q392 369 402 343ZM308 106Q296 102 284 101T258 99Q218 99 184 114T125 155T86 215T72 286Q72 326 87 360T127 420T187 459T258 473Q299 473 333 458T392 417T431 357T445 286Q445 252 434 223T405 171T362 132T308 106ZM304 452Q283
458 258 458Q221 458 190 444T136 406T100 351T87 286Q87 252 100 221T136 166T190 128T258 114Q293 114 324 127T379 164T416 218T430 286Q430 318 420 345T393 393T353 429T304 452Z" />
<glyph unicode=" " glyph-name="space" horiz-adv-x="139" />
<glyph unicode="!" glyph-name="exclam" horiz-adv-x="120" d="M73 509Q73 415 70 336V282Q70 257 70 232T71 180H70Q69 180 68 180T65 179V176H64Q63 176 63 176T60 177Q54 177 52 179T48 185Q47 217 47 244T47 300Q47 329 47 355T48 407V421Q48 428 48 439T48
468T49 513T49 579Q49 621 48 657T45 731Q46 734 56 734Q66 734 69 727Q71 688 72 647T74 558V534Q74 528 74 522T73 509ZM42 47Q42 49 42 50T43 53V54Q44 60 56 60Q66 60 69 54V44Q69 40 69 38T70 32Q70 20 70 11T67 -9Q66 -10 61 -10Q57 -10 54 -4T48 11T44 29T42
47Z" />
<glyph unicode="&quot;" glyph-name="quotedbl" horiz-adv-x="185" d="M74 706Q76 701 76 697T76 688V682Q76 635 69 606L62 605Q56 606 52 612V614Q52 619 52 624T51 635L44 720Q47 721 50 721T58 722Q68 722 69 719T74 707V706ZM146 682Q146 659 144 641T138
606H131Q126 607 123 612V615Q121 630 121 646T118 683L115 720Q121 722 129 722Q145 722 145 718T145 706H146V682Z" />
<glyph unicode="#" glyph-name="numbersign" horiz-adv-x="337" d="M323 483Q325 478 326 475T327 467Q326 467 326 465T326 461Q322 461 314 463Q303 466 289 466H247V456Q243 428 241 396T235 328L231 283V271Q242 271 251 271T269 272Q274 272 279 272T287
273Q298 273 304 271T311 261V254Q303 255 286 256T258 257Q252 257 244 257T227 259V249L223 217Q221 195 218 174T212 129Q210 118 210 106T208 79Q206 56 204 34T198 -2Q192 -1 187 2T180 14Q185 41 188 74T195 142Q197 169 199 195T207 246V259H127Q122 258
115 258T101 258V248Q100 237 98 225T95 202Q93 184 91 167T86 130V129Q84 117 83 104T81 73Q79 51 77 31T72 -2Q64 -1 59 2T53 15Q59 47 63 85T72 164Q74 184 76 205T80 246V258Q68 258 57 258T37 259H18Q16 262 16 265T14 271H86V281Q89 304 90 330T94 383V385Q95
402 96 419T100 454V466Q88 466 76 466T55 467H34Q32 470 32 473T31 479H103V487Q105 496 106 506T108 527Q110 547 112 567T118 608Q120 616 120 627T122 652Q124 674 126 693T134 717Q144 711 146 706T148 693Q148 648 143 611T132 535V534L125 491V479Q136 478
144 478T159 478Q167 478 186 478T230 479V488Q231 499 232 510T235 533Q238 559 241 590T248 649T255 695T263 715Q267 715 269 712T274 706H273Q274 704 274 697T274 685Q274 645 269 609T259 538V537L251 491V479Q261 479 270 479T287 480Q292 480 296 480T303
481Q317 481 323 478V483ZM213 281Q214 289 214 297T215 317Q217 352 220 386T226 455V467H143Q139 466 133 466T120 466V457Q118 443 117 428T113 396V395Q113 389 112 382T111 369L104 283V271Q111 271 117 271T130 270H142Q150 270 170 270T213 271V281Z" />
<glyph unicode="$" glyph-name="dollar" horiz-adv-x="212" d="M115 812Q116 801 116 792T116 773Q116 767 116 761T117 748V738Q159 728 176 685T194 581V576Q194 567 183 567H179V568Q176 593 173 617T163 662T146 697T118 714V643Q118 608 118 588T117 547Q117
535 117 522T116 493T116 454T116 403V398L136 364Q150 341 162 316T182 267Q191 229 198 194T206 117Q206 87 197 63T174 22T145 -5T119 -17V-33Q119 -35 119 -35T120 -38V-44Q120 -53 120 -63T119 -83T114 -98T106 -104Q103 -104 100 -102T97 -95V-14Q56 2 37
50T18 191V206Q18 209 18 217T20 233T23 247T28 253Q30 253 34 250T39 241Q39 233 39 225T38 206V177Q38 97 57 59T97 10V382L77 416Q67 432 58 449T40 486T27 529T22 580Q22 610 27 637T41 686T64 721T92 737V780Q92 791 93 802T100 814Q104 814 108 813T115 807V812ZM181
92Q182 101 182 113T183 138Q183 166 177 195T162 251T142 302T120 343L115 351V330Q115 292 115 259T117 192Q118 154 118 113T119 18V7Q137 11 156 30T181 92ZM84 705Q67 688 57 651T46 576V572Q46 530 60 500T91 443L97 435V590Q97 602 97 613T96 639V715Q94
715 84 705Z" />
<glyph unicode="%" glyph-name="percent" horiz-adv-x="406" d="M165 254Q182 315 192 358T212 440T233 517T262 606Q266 619 269 635T275 667T285 696T300 716Q308 711 309 706Q304 655 291 607T263 507Q245 441 226 360T180 188L155 99Q151 85 148 66T140 28T132
-7T124 -33Q118 -33 108 -27T98 -9Q103 3 105 15T109 43L130 123Q136 142 141 162T152 200T160 232T165 255V254ZM168 498Q166 478 163 458T153 420T139 391T119 380H115Q107 381 96 383T70 391Q61 400 57 409T49 434T45 479T40 556L47 668L52 689Q60 709 74 723T109
738Q119 737 128 731T144 711T157 673T164 613L168 498ZM67 482Q67 449 81 427V423L124 419V423L134 430Q139 434 141 439T145 459T147 506T147 594Q145 652 132 681T108 710Q102 710 84 691L75 669V665L74 666Q68 657 68 641L67 482ZM267 91Q267 84 269 74T274
53T281 33T288 18V15L324 29V32Q332 40 337 43T344 58T347 95T348 174Q348 201 346 227T338 273T326 305T309 319Q305 319 300 315T285 300L276 279V274L275 275Q268 267 268 250L267 91ZM368 107Q367 87 363 67T353 29T339 1T319 -10H315Q307 -9 296 -7T270 0Q262
9 258 18T250 43T245 88T240 165L248 277L253 298Q260 318 274 332T310 347Q320 346 329 340T345 320T358 282T365 222L368 107Z" />
<glyph unicode="&amp;" glyph-name="ampersand" horiz-adv-x="250" d="M241 186Q239 184 234 183T222 182Q208 182 203 187V179Q203 163 202 142T199 98T192 55T180 23Q165 -3 147 -9T107 -15Q94 -15 78 -7T47 26T22 93T12 207Q12 278 26 322T65 396V407Q48 433
36 470T23 553Q23 583 28 614T45 670T72 710T109 726Q149 726 168 683T188 558Q188 544 175 544Q169 544 165 551T163 569V571Q163 593 161 616T153 659T137 691T112 704Q77 704 62 662T46 548Q46 536 48 513T58 468T78 429T110 412H118Q123 410 127 408T132 400Q132
391 119 391L113 390Q99 390 86 379T60 348Q48 325 41 290T34 220V201Q34 192 34 182T35 154Q35 114 44 86T65 39T91 12T114 3Q127 3 137 7T159 29V30Q176 62 178 108T181 203V209L175 219Q167 233 161 234T153 236Q147 236 143 232T135 214V213Q133 206 131 201T120
195Q115 195 115 191Q115 232 127 245T154 259Q166 259 172 254T185 238Q193 224 201 216T216 207Q229 207 234 216T240 254V259Q240 261 240 262T239 265Q239 264 243 264Q250 264 254 255T258 238Q258 221 255 212T241 188V186Z" />
<glyph unicode="&apos;" glyph-name="quotesingle" horiz-adv-x="117" d="M75 690Q75 688 75 685T76 679Q76 656 75 638T71 605H65V603H64Q58 603 57 604T55 608H54V612Q52 624 52 637T50 664Q49 676 49 688T46 715L50 718H55Q69 718 75 701V690Z" />
<glyph unicode="(" glyph-name="parenleft" horiz-adv-x="120" d="M39 409Q37 346 36 284T34 157Q34 87 42 26T64 -95V-96Q72 -125 84 -137T108 -158Q118 -165 126 -172T134 -187Q134 -196 121 -196Q106 -196 91 -184T62 -152T39 -103T25 -44Q25 -40 25 -38T23
-33Q21 -25 19 -11T15 26T12 82T9 164Q10 251 10 299T11 371T12 407T14 432V433Q14 441 14 448T16 469V470Q16 522 23 567T43 647T76 706T120 736Q123 735 125 731T127 722Q127 716 120 712Q89 696 67 638T41 481L39 409Z" />
<glyph unicode=")" glyph-name="parenright" horiz-adv-x="120" d="M87 481Q83 580 62 638T8 712Q0 716 0 722Q0 727 2 731T8 736Q32 729 51 706T84 648T104 567T111 470V469Q112 456 112 449T113 433V432Q114 418 114 407T115 372T116 299T118 164Q118 116 117
83T113 26T109 -11T105 -33Q104 -36 104 -39T104 -44Q100 -75 90 -103T67 -151T38 -184T7 -196Q-6 -196 -6 -187Q-6 -179 1 -172T20 -158Q31 -150 43 -138T63 -96V-95Q78 -35 85 26T93 157Q93 239 91 318T87 481Z" />
<glyph unicode="*" glyph-name="asterisk" horiz-adv-x="176" d="M113 616Q109 607 105 599T102 585V583V577L121 583Q126 583 130 579T135 569Q135 562 127 561T113 559L104 563V553Q105 547 108 540T115 526T121 512T124 503Q124 502 121 500T116 498Q114 498
111 504T104 520T97 537T93 550V549Q92 547 92 541T92 529V513Q92 508 92 503T93 494Q93 478 86 478Q79 478 78 483Q78 486 78 494T79 512T80 534T80 553V557Q76 551 74 541T70 522T66 505T59 498Q57 498 54 501T51 509Q51 519 56 533T65 552V561L56 553Q42 553
42 572Q44 574 47 574T56 574H70V584Q63 597 57 611T51 636H55Q61 636 64 632T69 622T73 610T79 600V617Q79 632 80 646T82 671Q87 671 90 667T93 659V603L96 611Q98 619 102 630T109 645Q119 640 119 633L113 616Z" />
<glyph unicode="+" glyph-name="plus" horiz-adv-x="300" d="M245 293Q248 282 248 273Q248 269 248 266T247 261L205 268H165V242L163 184Q163 164 162 145T161 107V102Q161 97 161 90T163 69Q163 64 159 63T152 61Q148 61 146 66L143 73L141 153Q141 155 141
160T141 172T141 183T142 189V203Q142 226 142 231T143 240V241V260V268Q135 268 126 267T107 266H94Q91 265 88 265T81 265Q64 265 62 273T59 290H77Q94 290 110 290T143 289V296Q143 336 142 373T138 445Q141 451 148 451Q155 451 158 433T162 391T163 340T163
296V290Q168 288 172 288Q183 288 194 290T219 292Q227 292 233 291T245 288V293Z" />
<glyph unicode="," glyph-name="comma" horiz-adv-x="129" d="M68 49Q60 47 55 40T50 24Q50 21 51 16T55 7Q57 4 58 0T59 -14Q59 -34 58 -47T54 -72T47 -96T35 -124Q35 -125 34 -124T33 -124V-127Q31 -133 31 -135Q31 -139 35 -139Q41 -139 46 -133T57 -117T66
-97T72 -78V-77Q78 -56 79 -39T81 -4V29Q80 39 79 45T72 51Q68 51 68 51V49ZM68 52V51Q66 51 68 52Z" />
<glyph unicode="-" glyph-name="hyphen" horiz-adv-x="185" d="M160 296L163 287Q163 283 166 286Q166 274 162 269Q153 272 130 273T77 275H64Q62 275 59 275T53 274Q42 272 32 274T19 292Q39 292 52 292T73 291Q75 291 79 291T86 290Q90 290 93 290T101 291L132
294Q143 294 149 293T160 290V296Z" />
<glyph unicode="." glyph-name="period" horiz-adv-x="122" d="M57 41Q65 41 68 39T74 33Q76 28 77 28Q78 26 78 21T78 11V9Q75 -1 69 -5Q46 1 46 29Q47 31 48 33T52 38L57 44V41Z" />
<glyph unicode="/" glyph-name="slash" horiz-adv-x="191" d="M59 275Q76 336 86 380T106 462T126 538T156 628Q160 644 163 661T171 693T180 720T194 738Q202 733 203 727Q198 692 189 656T168 585L154 541Q140 499 127 448T100 341T72 229T43 121Q41 111 38
94T31 58T22 21T11 -11Q5 -10 -1 -4T-8 12Q-3 25 -1 37T3 64L24 144Q30 163 35 183T46 221T54 253T59 276V275Z" />
<glyph unicode="0" glyph-name="zero" horiz-adv-x="236" d="M213 602Q215 547 216 493T217 385V269Q217 212 214 160T201 66T169 1T111 -24Q93 -24 76 -13T45 22T23 87T14 184V508Q14 621 42 676T116 732Q157 732 181 698T213 601V602ZM172 662Q160 690 146 699T116
708Q101 708 87 698T63 664T46 604T38 514Q37 480 37 452T36 396T35 338T35 271Q35 227 37 179T47 91T72 25T115 -2Q131 -2 145 13T169 57T186 124T194 212Q193 275 193 335T193 440V513Q193 555 189 591T172 661V662Z" />
<glyph unicode="1" glyph-name="one" horiz-adv-x="199" d="M143 567Q141 519 141 480T140 418V379Q140 360 140 345T142 311V222L147 8Q147 -2 142 -7Q131 -7 127 -3T122 3H123V51Q123 80 123 110T121 170V312Q120 327 120 345T120 378V426Q120 435 120 442T119
458V488Q119 535 120 574T123 650V656L42 516Q40 514 36 514Q32 514 31 520T29 530V534Q55 575 78 620T126 717L134 715Q139 713 143 711T147 706L143 567Z" />
<glyph unicode="2" glyph-name="two" horiz-adv-x="194" d="M116 700Q114 700 113 700T109 701Q105 703 100 703Q89 703 77 687T57 650Q48 625 46 606T42 556V555Q42 549 42 542T40 526V525Q40 523 40 518T39 506T35 493T28 485Q20 485 20 491V501Q21 546 24 586T36
656T60 703T101 721Q136 721 150 690T169 599Q169 555 163 520T146 451T120 386T85 316Q74 292 66 255T53 177T46 99T43 34V17Q51 15 56 15T70 14Q82 14 101 16T134 21Q149 24 155 24Q161 24 167 20T174 7Q174 2 167 0T149 -4T127 -5T108 -4H85Q79 -4 72 -4T57
-3Q52 -3 44 -3T29 -2L19 0V11Q19 27 19 46T22 89Q24 98 24 109T26 133Q29 172 36 222T70 332L86 364Q96 382 107 404T127 453T142 514T148 589L146 625V626Q145 637 142 649T135 673T126 691T116 700Z" />
<glyph unicode="3" glyph-name="three" horiz-adv-x="221" d="M190 358Q198 318 202 285T206 206Q206 170 201 132T185 61T158 9T119 -12Q107 -12 96 -11T75 -4T57 11T41 39Q36 49 32 62T27 86Q27 88 29 95T33 99Q44 67 54 48T75 19T94 6T113 3Q133 3 147 24T169
77T181 148T185 222Q185 252 182 286T172 349T152 397T120 416H106Q103 416 97 414T86 410Q82 408 79 408T68 407Q63 407 60 411T56 420Q56 423 58 428T62 438L65 447Q84 493 102 538T138 631L142 639Q143 642 146 649T153 663T158 677T160 683H121Q113 683 104
683T86 682Q78 681 68 681T49 681Q41 681 36 683T30 691Q30 695 35 697T46 701T58 703T67 704Q77 704 84 704T96 703H133Q139 703 145 703T160 704Q168 704 176 702T186 689Q185 689 185 688V687L168 648Q160 629 152 609T136 569Q125 540 116 513T94 458L83 430Q98
436 114 436T146 428T172 403T190 358Z" />
<glyph unicode="4" glyph-name="four" horiz-adv-x="240" d="M196 616Q196 598 196 578T195 533Q194 501 194 465T194 386Q194 368 194 351T195 313Q196 287 196 250T196 167V158Q202 161 212 161Q218 161 225 159T232 151Q232 143 224 141T210 139Q200 139 198
140V130Q199 118 199 112T199 99V72Q199 64 199 57T200 43Q200 38 200 30T199 14T196 1T191 -5Q186 -3 182 0T175 7Q176 23 176 36T177 64Q177 80 177 95T175 128V138Q167 140 161 140T146 141H115Q105 141 94 140T71 137Q62 135 53 134T35 133Q24 133 18 139T9
157Q23 208 36 256T65 355Q87 429 110 509T154 671L165 715L171 719Q172 719 174 719T177 720Q182 720 185 718T191 707T195 683T196 638V616ZM173 665V663Q153 582 132 510T91 368Q78 322 65 274T38 180V173Q38 155 43 155Q73 155 86 156T106 159V160H140Q148
160 156 160T175 157V168Q174 181 174 193T174 216V263Q174 277 174 290T175 321V447Q175 473 175 499T176 551Q176 560 176 572T176 597T177 622T177 643V673L173 665Z" />
<glyph unicode="5" glyph-name="five" horiz-adv-x="244" d="M220 357Q223 321 223 290V279Q223 232 219 179T204 80T171 5T114 -25Q92 -25 76 -11T48 28T31 82T24 144V155Q24 162 24 170T25 186T27 198T32 203Q38 203 41 197T44 183V157Q45 126 48 98T60 48T81
14T113 1Q147 1 165 29T191 102T200 200T201 308Q201 407 177 450T114 494Q87 494 56 484Q55 484 53 483T49 481Q48 480 41 480Q32 480 29 494V500Q29 520 30 539T32 578Q33 597 33 615T34 652Q34 663 34 675T33 698V699Q33 698 45 698T73 697T103 697T120 697H130Q144
697 160 696T191 692H199Q215 692 215 666Q213 669 213 669H183Q179 669 176 669T169 668Q164 667 154 667T138 667Q126 667 111 670Q103 672 93 673T75 674Q65 674 60 669T53 649T50 610T50 546Q50 535 50 528T51 515V507Q73 516 101 516Q162 516 187 476T220
357Z" />
<glyph unicode="6" glyph-name="six" horiz-adv-x="230" d="M209 264Q210 252 210 242T210 219Q210 177 205 135T189 58T159 2T114 -20Q84 -20 67 9T42 84T32 184T30 290Q30 313 30 332T32 371T37 412T44 460V461Q52 510 63 551T89 631L99 659Q100 665 104 675T115
695T127 712T141 720Q149 717 149 712Q149 709 142 698Q141 696 140 695T135 684Q122 655 110 625T88 563T70 496T57 419V414Q63 427 71 440T89 464T109 482T129 489Q156 489 174 455Q198 411 202 366T209 265V264ZM141 11Q171 43 180 98T189 217V222Q189 232 189
254T188 303T182 358T172 410T154 448T127 463Q107 463 92 445T68 397T54 331T49 260V229Q49 198 52 158T62 83T83 23T115 -2Q120 -2 126 -1T141 11Z" />
<glyph unicode="7" glyph-name="seven" horiz-adv-x="230" d="M218 699Q211 654 204 607T189 517T176 438T165 378V366Q166 366 166 366T170 367Q182 367 189 364T196 344Q196 342 192 342H188Q186 342 181 342T171 342T160 342T154 344V337L109 58L98 -10L78
-3Q81 28 86 62T99 131Q107 169 111 198T120 258V259Q123 276 125 293T132 334V346H107V345Q103 343 97 343T85 342H79Q73 344 69 348T64 357V363L138 369V377Q147 416 154 451T168 522T180 594T191 670V682H185Q180 682 173 682T152 682T116 683T60 686Q56 686
48 684Q42 683 36 682T25 681Q20 681 14 682T7 688Q7 702 24 705T60 708Q62 708 68 708T82 707Q96 706 111 705T134 704Q141 704 148 704T163 706Q170 707 177 707T191 707Q209 707 218 699Z" />
<glyph unicode="8" glyph-name="eight" horiz-adv-x="248" d="M164 394Q183 382 195 364T215 321T224 267T227 206V180Q227 165 226 144T223 101T215 61T202 32V30Q189 -1 164 -9T118 -17Q67 -17 45 37T23 213Q23 249 25 276T34 324T49 362T70 394V404L63 422Q54
445 47 466T40 520V530Q40 548 40 560T42 585T46 609T51 637V639Q51 642 52 645T53 652Q60 686 75 702T110 719Q133 719 157 704T190 655Q196 629 198 597T200 540Q200 505 192 471T164 408V394ZM128 8Q141 8 153 12T176 35V34Q194 68 199 114T205 213Q205 306
181 348T124 390Q109 390 95 381T66 348Q53 326 50 293T46 224Q46 218 46 212T47 201V158Q47 78 70 43T128 8ZM84 673Q70 646 67 616T64 539V521Q64 508 65 490T73 454T90 425T121 413Q138 413 149 425T166 459T174 509T177 571Q177 612 171 640T140 688Q127 699
118 699Q111 699 103 693T84 677V673Z" />
<glyph unicode="9" glyph-name="nine" horiz-adv-x="224" d="M194 549Q196 512 197 479T198 413V259Q198 225 196 178T186 88T160 15T114 -15Q100 -15 86 -10T61 12T42 56T34 132V136L38 138Q46 138 49 136T54 130L56 133V132Q57 110 60 88T69 48T85 19T112 8Q128
8 140 23T160 67T173 135T177 222V231Q177 236 177 242T176 260L177 337Q163 295 143 272T96 249Q78 254 65 274T42 324T28 390T23 462Q23 515 28 561T43 641T70 697T109 723Q149 717 169 671T194 549ZM167 578Q167 580 167 581T166 585V587Q163 604 159 623T148
658T132 686T109 697Q100 697 89 692T68 665T52 598T45 473Q45 380 61 326T101 272Q111 272 124 282T148 316T166 378T172 470V532Q172 546 171 557T167 580V578Z" />
<glyph unicode=":" glyph-name="colon" horiz-adv-x="131" d="M78 367Q76 370 76 370Q69 370 65 377T60 396T58 422T58 450V468Q58 477 58 486T67 496Q72 496 73 492T77 480V442V409Q77 400 77 390T78 370V367ZM79 81Q79 57 79 35T76 7Q76 8 73 8Q66 8 65 13V19H61Q60
36 60 51T60 93V136V139Q71 139 74 136T79 126V81Z" />
<glyph unicode=";" glyph-name="semicolon" horiz-adv-x="139" d="M79 373Q79 374 78 375Q70 375 66 381T59 398T57 422T56 448V454Q56 459 56 466T57 479T60 489T66 494Q76 494 79 478V438V407V373ZM79 371V373V370V371ZM79 63Q84 63 85 45T87 9Q87 -8 86 -25T79
-62Q77 -70 74 -81T66 -102T57 -118T47 -125Q44 -125 44 -120Q44 -118 46 -112V-109Q46 -108 46 -109T47 -109Q53 -93 57 -82T63 -59T67 -34T68 0Q68 9 67 13T65 21Q61 31 61 37Q61 57 75 63H79ZM75 65V63Q74 64 75 65Z" />
<glyph unicode="&lt;" glyph-name="less" horiz-adv-x="223" d="M62 367Q69 373 75 379T93 395V396Q115 415 136 432T180 470Q187 468 190 467T194 458Q194 457 194 457T193 456L192 452Q190 449 180 442T160 426Q156 423 154 421T149 416Q146 413 144 412Q132
407 119 396T92 370T68 341T49 313V307Q67 289 84 277T116 253Q138 236 158 218T194 181Q197 174 197 171T198 163V160Q198 159 198 156T194 150L133 209Q121 222 110 230T87 246Q68 261 50 275T23 305Q27 323 39 338T62 367Z" />
<glyph unicode="=" glyph-name="equal" horiz-adv-x="254" d="M187 331Q205 331 206 321V316Q207 313 209 313L204 308Q204 310 201 310Q183 308 158 307T103 305H90Q84 305 75 305T59 305T46 310T40 324Q51 329 76 330T121 331H187ZM128 194Q140 196 154 196T188
198Q202 198 204 190V187Q207 181 207 181L204 179V173V178Q163 174 129 174T66 168H62Q51 168 46 171T40 187Q45 193 51 194T66 196H72Q77 194 82 194T103 193Q108 193 112 193T118 194H128ZM207 181Q207 181 208 182L207 181Z" />
<glyph unicode="&gt;" glyph-name="greater" horiz-adv-x="250" d="M182 367Q193 354 204 340T220 308Q212 294 195 280T158 252Q147 244 136 236T114 216L55 159Q53 161 53 164T52 168V171Q52 175 52 178T55 188Q70 206 90 223T130 258Q144 270 161 281T195 310V315Q188
328 177 342T154 370T128 395T104 411Q102 413 99 415Q93 419 88 424Q78 432 69 439T57 450L56 453Q56 455 56 455T55 455Q55 462 58 463T69 467Q91 447 111 430T153 395Q164 387 169 381T182 367Z" />
<glyph unicode="?" glyph-name="question" horiz-adv-x="225" d="M41 657Q41 681 48 697T66 723T89 737T113 742Q127 742 148 738T180 722Q188 713 192 691T197 643T199 591T199 545Q199 508 193 483T175 436V435Q160 403 143 374T109 310V308Q106 300 102 278T96
230L95 133Q95 134 89 134L80 135Q80 135 79 143T77 163T75 186T74 204V239Q74 247 74 255T75 271V272Q76 304 92 333T126 393T160 463T175 551Q175 576 175 604T172 657T160 697T137 713L120 718Q97 718 86 705T64 652V650Q64 645 64 632T64 606T61 582T53 571Q47
571 44 579T41 598V657ZM97 57Q97 52 97 47T98 34Q98 17 95 0T84 -17Q79 -15 77 -9T75 4V6Q73 16 72 27T71 50Q72 50 75 57V60Q77 69 83 69Q93 69 97 61V57Z" />
<glyph unicode="@" glyph-name="at" horiz-adv-x="294" d="M174 351V352Q172 387 163 404T142 422Q126 422 123 390T120 304Q120 285 120 251T123 184T132 127T149 103Q156 103 161 119T169 158T173 208T175 256L174 351ZM264 316Q265 298 265 278T266 235Q266
200 263 168T254 109T236 68T208 52Q193 76 184 112V114L180 103L178 105Q172 94 165 87T149 80Q130 80 120 100T104 152T98 220T97 291Q97 314 98 341T104 392T116 432T136 448Q147 448 156 442T171 426L177 465Q191 451 195 430T199 383V366Q199 358 199 349T198
327V308Q198 300 198 292T199 273Q199 265 199 259T198 245V217Q198 197 198 173T201 127T208 91T218 76Q225 76 230 92T238 134T242 193T244 261Q244 294 242 322T240 387V388Q237 443 231 491T212 575T181 631T134 652Q112 652 98 635T75 590T63 526T58 453T56
380T57 318V230Q57 167 60 112T74 15T102 -51T149 -75Q170 -75 187 -72T222 -45V-44Q224 -37 231 -37Q233 -37 236 -39T239 -45Q239 -61 232 -71T215 -87T194 -95T173 -98Q163 -98 148 -98T116 -91T86 -72T64 -35Q46 19 40 97T33 260Q33 308 34 356T36 451Q36 479
38 518T50 592T80 652T139 677Q170 677 191 657T226 604T247 531T259 450T263 375T264 316Z" />
<glyph unicode="A" glyph-name="A" horiz-adv-x="198" d="M86 722Q88 732 95 732T106 723V722Q117 698 122 665T132 598L139 555V554Q144 525 146 497T151 440Q153 414 155 389T161 336V335Q164 317 165 301T169 268L173 223L201 2L197 -2V-6Q198 -3 192 -3Q186
-3 186 -3T187 -1V0L183 5Q172 71 163 136T146 278L144 288Q142 288 135 288T118 288T100 289T91 289Q84 289 73 290T54 289L53 277Q51 248 48 221T42 165Q40 154 40 143T38 121V120Q38 115 37 110T36 99Q34 76 31 54T26 7V6Q26 -8 15 -11Q10 -10 6 -7T2 4L3 7Q17
104 26 199T44 405Q45 419 47 439T52 478L56 510Q61 568 68 618T86 722ZM85 583Q78 523 72 463T59 340L57 310Q65 308 75 309T92 310Q106 310 118 309T143 310L139 349V350Q136 388 133 427T125 505Q123 527 121 553T115 606T107 655T98 696Q96 687 94 673T90 644T87
612T85 583Z" />
<glyph unicode="B" glyph-name="B" horiz-adv-x="216" d="M127 -4Q122 -5 118 -5T107 -6Q101 -6 95 -5T82 -3Q77 -2 72 -2T62 -1H53Q45 -1 40 1T33 18T31 65T30 159V421Q30 447 30 473T29 535V575L30 710Q30 720 40 721T60 722H84Q92 724 96 724Q109 724 125 720T157
700T182 653T192 567Q192 509 190 469T167 396L157 379V367Q180 334 188 283T197 158Q197 111 192 82T178 35T156 9T127 -4ZM90 16Q96 15 101 15T112 14Q149 14 162 46T176 153V167Q176 192 175 225T168 290T152 342T121 364Q116 364 112 364T103 365H89Q80 365
71 364T53 358V349Q53 343 53 338T52 327V209Q52 187 52 174T52 152T53 140T53 133V21L90 16ZM50 392V382Q55 384 60 384T71 384H82Q97 384 108 384T126 383V382Q150 390 160 432T171 533Q171 567 169 598T158 654T133 693T91 709Q88 708 84 708T77 708Q72 708
68 708T58 705H49V694Q49 689 49 685T50 675V638Q50 609 50 568T49 490V409L50 392Z" />
<glyph unicode="C" glyph-name="C" horiz-adv-x="201" d="M174 567Q174 567 171 567Q164 567 163 571L155 608Q151 627 147 646T136 680T120 705T97 715Q84 715 67 694T44 635V634Q44 626 44 619T43 603Q42 589 42 576T42 550Q42 542 42 534T41 517V430Q41 402
41 374T40 318Q40 277 41 237T44 159Q45 137 46 118T51 77Q57 39 70 25T97 10Q111 10 128 24T154 67Q157 74 158 87T160 114V115Q161 128 162 137T167 147Q177 147 179 137T181 116Q181 59 159 24T99 -11Q81 -11 67 2T43 40T28 98T22 170Q22 197 22 224T21 278L19
421V422Q18 430 18 437T18 453Q18 476 18 500T20 548Q21 565 21 580T22 611Q25 723 91 734H98Q107 734 115 733T130 726Q139 718 148 703T164 670T175 631T180 593Q180 585 179 580T174 567Z" />
<glyph unicode="D" glyph-name="D" horiz-adv-x="220" d="M201 136Q201 104 193 78T168 29V28Q158 11 142 5T103 -2Q94 -2 93 -1V0Q92 -2 83 -2T63 -2T43 -2T33 -4Q33 -3 33 -2T34 6V25Q34 37 34 54T33 94T32 148T31 221Q31 268 32 322T35 443V479Q35 492 35 503T34
526V567Q34 621 34 656T32 717Q34 719 41 719T60 719Q63 719 66 719T75 719T93 719T123 720Q123 719 127 719T135 717Q201 695 202 568Q203 530 203 500T203 446V390Q201 355 201 322T201 260V136ZM110 699Q108 699 107 699T104 700Q83 700 54 692V682Q56 641 56
606T57 527V474Q57 453 57 435T56 397V334Q56 320 55 296T54 252Q54 247 54 243T55 235L57 19Q63 17 68 17T93 18Q105 18 128 22V23Q150 31 165 71T180 166V320Q180 357 181 394T183 468Q183 560 178 604T162 663Q139 694 118 699H110Z" />
<glyph unicode="E" glyph-name="E" horiz-adv-x="190" d="M145 723Q150 723 157 723T171 721Q177 717 177 715T178 707Q178 702 168 702Q155 702 144 704T121 706Q104 706 88 706T53 703V691Q53 619 52 548T50 404L48 391Q61 391 77 390T107 389H117Q127 389 129
377V375Q129 373 120 372H106Q101 373 97 373T87 373Q79 373 69 373T50 371V362Q49 348 49 334T49 305V267Q49 257 49 247T50 226V214L49 130Q49 126 49 118T50 79V17Q58 15 70 15T91 14Q102 14 113 16T137 19Q146 19 151 15T157 0V-1L137 0Q132 0 126 0T111 -1T90
-2T59 -2H50H46Q40 -2 36 2T32 26Q34 57 33 92T32 167Q32 195 32 224T31 282V366Q31 394 31 414T32 452T33 484T34 519V541Q34 572 34 590T34 624V625Q33 639 33 654T32 693V698Q32 701 31 705T31 713T36 719T49 722Q54 722 59 722T70 721H85Q107 721 122 722T145
723Z" />
<glyph unicode="F" glyph-name="F" horiz-adv-x="175" d="M149 723Q153 723 158 723T169 724Q176 724 181 723T187 716Q187 714 184 710T178 704Q164 706 153 707T131 709Q120 709 111 707T76 705Q69 705 63 705T49 706Q56 616 55 540T54 388V375Q58 374 61 374T68
374Q82 374 95 375T122 377Q129 377 129 374T130 367Q130 361 128 360T117 359H76Q68 359 63 359T54 358L53 341Q51 303 51 265T50 188Q50 147 51 110T54 30L51 -4Q36 -4 33 13T30 52Q30 143 32 242T34 436Q34 453 34 470T33 504V601Q33 609 33 617T34 637Q34 645
33 658T30 683T27 705T26 717Q26 721 32 722T44 724Q54 724 65 723T87 722Q90 722 98 722T115 722T134 723T149 723Z" />
<glyph unicode="G" glyph-name="G" horiz-adv-x="186" d="M111 722Q134 705 145 672T162 591Q162 571 155 557Q147 562 145 564T140 572V585Q140 589 140 592T141 601Q141 609 139 619T131 649L124 665Q113 689 105 701T80 714Q71 714 65 706T55 685T49 662T46
644Q44 631 44 619T44 590V547Q44 535 44 522T45 496Q45 496 45 485T43 453T42 407T41 350Q41 241 44 175T55 72T74 23T102 11Q106 11 113 12T126 17Q134 23 139 36T148 64T152 94T153 120Q153 125 153 130T153 142T152 162T152 196Q152 218 151 239T148 273V284Q148
299 148 302T139 310Q138 310 138 310T137 311L108 304L95 298Q82 298 82 312Q82 320 92 323T116 328T141 330T157 332Q165 318 168 292T171 231Q171 214 171 198T172 165Q172 158 172 145T172 123Q172 108 170 90T163 55T151 22T132 -1Q127 -4 120 -5T104 -7H98Q59
1 42 47T24 176V196Q24 244 23 271T21 325V358L25 613V614L26 645Q28 662 31 679T42 712Q47 723 57 727T80 731Q97 731 111 722Z" />
<glyph unicode="H" glyph-name="H" horiz-adv-x="217" d="M181 722Q186 695 188 667T190 603V533Q190 511 190 489T189 442V431Q189 420 189 410T191 391V350Q191 339 191 328T192 303Q193 286 193 261T193 207V152Q193 123 193 101T194 64V59Q194 46 194 38T195
24V16Q194 6 193 1T186 -5Q174 -5 171 -2V183Q171 231 170 274T166 367V383H121Q119 383 102 383T69 381Q64 380 63 380T60 372V363Q62 334 63 312T64 257V235Q64 218 64 194T63 133Q63 114 63 93T64 47Q64 39 64 31T63 14L60 -11Q59 -13 56 -13T50 -14Q42 -14
42 10Q42 15 42 20T43 30Q44 37 44 45T44 65Q44 103 44 130T43 180Q43 200 43 218T42 258V282Q42 320 41 350T38 408Q37 431 37 458T36 513Q36 537 36 564T38 604V723Q38 724 47 724Q55 724 58 718V565Q58 536 58 507T57 447V442Q57 430 57 422T59 407V399Q65 399
71 399T85 400Q98 401 114 401T142 402Q149 402 153 402T165 403V409Q167 458 167 500T168 581Q168 619 167 650T165 696V708Q165 713 167 717T175 722H181Z" />
<glyph unicode="I" glyph-name="I" horiz-adv-x="102" d="M65 548Q65 525 65 500T64 448Q63 419 63 385T62 321Q62 282 63 246T65 174Q66 148 66 118T67 59V53Q67 44 67 34T66 15T61 0T53 -6Q50 -6 47 -1T43 21V496Q43 507 43 519T42 544Q42 548 42 555T42 578T41
621T39 694Q39 705 40 716T47 727Q51 727 55 726T62 721L65 548Z" />
<glyph unicode="J" glyph-name="J" horiz-adv-x="172" d="M127 691Q127 657 127 630T125 578Q124 552 124 521T124 463Q124 434 124 406T126 349Q127 320 128 292T129 235V95Q128 71 125 52T114 15L87 -11Q83 -13 75 -13Q55 -13 39 11T15 66Q19 74 27 74Q36 74
39 62V61Q44 48 51 35T68 13V11H76V12Q99 26 104 57T110 152V242Q110 262 110 283T108 326Q107 349 107 372T106 418Q106 438 106 459T107 502Q107 519 107 545T108 587Q108 613 108 638T106 689V699Q97 702 90 703T74 704Q69 704 66 704T56 700H49Q43 700 43 706Q43
721 50 723T68 724H74Q79 724 83 724T92 723H117Q119 723 122 723T128 724Q139 724 147 722T156 710Q156 701 148 700Q145 701 142 702T136 703Q131 703 127 700V691Z" />
<glyph unicode="K" glyph-name="K" horiz-adv-x="233" d="M229 738Q220 730 209 713T187 673T166 624T145 573Q134 546 124 521T100 469V462Q110 406 122 370T148 300Q158 275 169 245T188 184Q206 120 219 68T232 -7Q231 -6 223 -6Q221 -6 219 -8T217 -11V-9Q206
30 195 68T174 150Q166 184 155 218T133 279Q119 315 106 352T82 434V439Q77 434 73 425T58 394V391Q58 380 58 369T59 346Q58 324 58 306T57 269V248Q57 231 57 218T58 190Q59 176 59 154T59 105Q59 99 59 91T60 73Q61 59 61 40T62 -2Q62 -3 57 -6Q51 -5 46 -4T39
-1Q40 14 40 23T40 43Q40 58 40 73T38 102Q37 115 37 132T36 174T35 232T34 312Q34 327 35 349T34 387L33 512Q32 531 32 551T33 592V637Q33 670 33 699T31 755H40Q49 755 51 747Q51 733 51 719T52 688Q52 661 52 630T53 566T53 504T55 448V439Q86 490 116 557T174
689L190 726Q196 737 204 744T223 753Q229 747 229 742V738Z" />
<glyph unicode="L" glyph-name="L" horiz-adv-x="183" d="M186 24Q192 19 192 8Q192 2 185 1T162 0H92Q83 0 74 0T57 1H31Q30 22 30 42T29 98V118Q29 140 28 175T28 239V289Q28 320 28 345T29 395T30 447T31 510V578Q31 598 31 617T29 657V663Q29 675 28 680T26
691V692Q23 704 23 716Q24 724 34 724Q47 724 49 712T51 683V674Q52 640 52 601T53 529Q53 479 51 428T49 320Q49 292 50 265T52 210Q52 195 52 181T51 152V42Q51 26 54 22T62 17Q63 17 64 18T67 19H98Q119 19 137 21T177 24H186V24Z" />
<glyph unicode="M" glyph-name="M" horiz-adv-x="261" d="M236 589Q236 580 236 572T235 554V519Q234 502 234 484T233 448V429Q233 424 233 419T234 406V356Q234 342 234 328T235 297V161Q235 83 238 35Q239 29 239 23T240 12Q240 4 240 1T239 -3Q238 -4 236
-5T230 -7Q226 -7 222 -6T217 -3L211 227V423Q211 433 211 443T210 465V500Q210 509 210 519T211 540L213 653Q204 616 195 576T181 503Q178 492 175 474T169 435Q164 404 158 376T139 327Q129 334 123 353T111 398V399Q98 447 89 485T72 565L64 603Q61 619 58
642T49 686V684Q51 615 52 552T53 441V229Q53 208 53 191T51 154V146Q50 129 50 112T50 74L53 11V7Q53 6 53 5T54 3Q54 -1 49 -3Q53 -3 45 -5Q42 -5 38 -4T33 0Q32 21 32 44T31 95Q31 124 31 148T32 192Q33 211 33 231T33 274V434Q33 462 33 486T32 534Q31 604
26 672Q26 677 26 683T27 697Q27 706 27 709T27 714Q28 714 29 716T33 721Q35 723 36 724T44 728H50Q55 728 59 722T68 697L81 632V631Q86 616 89 602T94 577V576Q94 575 94 573T96 565T99 547T106 514L136 381V380L137 383V384L143 419Q155 467 162 505T174 570Q175
573 175 581Q182 633 196 665Q201 681 204 694T207 719Q208 729 213 729Q217 729 223 728T232 724L236 589Z" />
<glyph unicode="N" glyph-name="N" horiz-adv-x="255" d="M219 496Q219 462 219 430T220 367V257Q220 229 220 208T221 171T222 141T224 114Q226 98 227 81T228 47Q228 40 228 32T227 16Q225 1 219 -4Q203 -4 202 0L203 19Q204 34 204 49T204 80Q204 97 204 108T203
133Q203 138 203 145T201 161Q199 201 198 233T197 295Q197 315 186 336Q169 376 156 403T130 457Q104 513 86 558T51 654V651Q50 622 50 592T50 538V503Q50 475 50 449T51 395Q52 343 52 289T53 174Q53 126 54 97T57 41V27Q57 15 56 10T51 -1Q52 0 50 -1T41 -3Q34
-3 34 4Q34 42 34 69T33 123V205Q33 292 30 387Q29 425 29 467T29 560Q29 606 29 642T27 721Q29 730 34 728Q49 728 57 709Q59 697 64 678T76 641T88 606T99 581V580Q107 569 112 559T122 541Q138 505 151 475T178 413L199 368V372Q198 456 197 539T194 707Q195
717 197 721T212 725Q216 722 216 719Q216 705 216 692T217 663Q218 628 218 583T219 496Z" />
<glyph unicode="O" glyph-name="O" horiz-adv-x="328" d="M236 708Q253 694 269 671T291 616Q299 579 303 550T310 497Q312 468 313 436T314 372Q314 354 314 336T316 297Q316 241 307 188T280 85V84Q266 54 251 33T208 -9Q186 -20 166 -20Q136 -20 112 0T72 43Q55
73 44 110T26 189T17 276T14 366Q17 456 27 528T58 655Q79 706 114 723Q126 729 140 731T166 734Q185 734 202 726T236 708ZM220 696Q207 706 192 711T162 716Q156 716 148 715T131 710Q91 695 73 644T46 510Q43 486 40 457T36 404Q35 388 35 376T34 348V332Q34
305 37 274T44 209V208Q48 165 58 130T88 60Q99 42 108 32T127 16Q138 10 147 6T167 3L184 5Q217 16 235 48T271 130Q276 146 282 172T292 243Q294 258 294 273T294 306V334V382Q294 399 294 416T293 449L291 513L287 542Q278 595 261 637T220 696Z" />
<glyph unicode="P" glyph-name="P" horiz-adv-x="206" d="M123 720Q139 716 152 707T175 680T189 633T194 560V549Q194 543 194 528T193 473V444Q193 394 183 361T158 308T126 280T94 272Q82 272 53 280V139Q54 128 54 117T54 95V49L53 2L49 -2Q44 -2 39 0T33
9L31 150Q31 164 30 174T29 196Q29 201 29 205T30 214V259Q30 300 29 356T28 482Q28 507 28 531T29 578V649Q29 658 29 668T28 686V713Q29 716 36 716T49 717H58Q66 717 79 719T103 722Q109 722 113 722T123 720ZM50 445Q49 418 50 392T53 340L54 307Q74 294 90
294Q117 294 132 310T156 351T167 407T170 467V475Q170 482 170 491T170 510T171 524T172 530V537Q172 620 160 660T107 701Q102 701 96 700T83 699L50 695V445Z" />
<glyph unicode="Q" glyph-name="Q" horiz-adv-x="342" d="M338 456Q339 445 339 435T339 413L337 297Q331 186 300 97L296 87Q294 84 294 81T289 72V61Q300 44 308 29T324 -3V-6Q322 -8 315 -8Q315 -10 311 -11T306 -13Q305 -13 301 -5T291 13T281 31T272 42V38Q257
15 231 -2T173 -19H167Q122 -19 93 9T47 78T23 166T14 248V249Q13 259 12 264T11 277T10 297T9 333V368Q9 382 9 398T12 430L16 488Q16 492 17 495T18 502Q24 551 32 593T56 668T96 718T159 739H164Q205 739 236 714T289 647T323 556T338 456ZM326 -3Q326 -6 325
-6L324 -3L325 -2Q326 -3 326 -3ZM300 555Q290 606 271 640T229 692T182 717T135 719L131 718Q113 707 98 693T71 652Q63 642 57 613T46 547T38 469T32 394V389Q32 387 32 385T31 377V361Q31 350 31 334T32 291V290Q36 228 45 175T70 84T111 23T169 1Q195 1 217
13T260 59V69Q252 84 241 103T219 139T201 171T193 190V192V194V193L194 194Q195 194 197 201T200 209Q200 209 201 208V205Q223 181 242 149T276 87Q277 88 278 90T281 94L287 111Q303 157 308 213T316 323V324Q316 328 316 331T317 337V350Q317 356 317 361T318
372V392Q318 440 313 478T300 555ZM193 192V193V192ZM194 193Q193 192 193 192L194 193Z" />
<glyph unicode="R" glyph-name="R" horiz-adv-x="217" d="M160 680Q167 663 171 646T178 615L181 597Q184 579 184 558T184 495Q184 480 184 467T183 427V421Q183 405 180 386T171 349T157 318T138 301Q132 299 132 291Q132 284 137 264Q146 226 153 198T171 133V132Q180
100 187 75T202 14V10Q202 8 202 8T203 5V1Q201 -2 193 -2Q187 -2 179 22T162 76T147 136T137 178L109 291Q105 289 95 289Q80 289 49 295L52 122Q53 95 53 73T54 27V20Q54 0 51 -4Q44 -4 38 -4T30 -1V143Q30 158 30 172T29 200V201Q27 224 28 253T26 307V384Q26
405 26 425T27 467V548Q27 569 27 590T26 632L25 703Q26 723 36 723Q46 723 54 722T77 721Q79 721 84 721T105 719Q129 713 140 705T160 680ZM160 601Q151 674 124 687L103 698Q98 698 89 700T70 702Q54 702 47 695V682Q47 670 48 661T48 640Q48 626 48 612T47
583V531Q47 516 47 502T48 472L50 384V319L66 315Q71 313 82 312H95Q116 312 129 325T150 360T160 410T163 468Q163 490 163 511T163 551T162 582T160 601Z" />
<glyph unicode="S" glyph-name="S" horiz-adv-x="191" d="M167 247Q175 218 180 189T186 130V121Q186 116 186 110T185 98Q183 83 178 66T166 33T149 5T130 -11Q120 -16 107 -16Q80 -16 57 6T24 76Q19 104 18 132T16 189V204Q16 207 16 215T18 230T21 244T26 250Q29
250 32 249T38 244V220Q38 216 38 212T37 203V175Q37 158 38 142T42 110Q44 96 47 82T54 54T63 31T76 17Q81 12 86 9T97 6Q117 6 136 28T161 96Q163 104 163 112T163 133Q163 178 149 223T120 305Q116 313 114 320T109 332V333Q99 356 91 373T74 404Q60 428 48
453T27 506Q19 540 19 574Q19 608 28 646T51 707Q58 718 64 723T86 730H90Q91 730 92 730T95 731Q109 731 120 727T141 711Q174 660 174 575V570Q174 562 163 562Q159 562 159 563Q156 589 152 612T142 658V659Q123 709 94 709Q89 709 85 707T74 697Q66 689 61
676T51 645T46 608T43 570V566Q43 523 55 494T82 438L97 409L111 384Q125 356 139 327T163 263L167 247Z" />
<glyph unicode="T" glyph-name="T" horiz-adv-x="181" d="M189 708V704L143 706Q132 707 122 706T100 707V699Q98 669 98 641T98 583Q98 502 98 420T104 257V37Q104 4 92 -8H91Q90 -8 90 -8T87 -7L82 2Q84 26 84 52T83 118L82 179Q82 234 80 294T78 411V516Q78
536 78 560T79 603V673Q79 681 79 690T77 706H49L14 704H5Q0 704 -2 706T-5 718Q-4 724 14 724Q22 724 30 724T50 723Q79 723 105 723T158 726Q166 726 176 725T188 719L189 708Z" />
<glyph unicode="U" glyph-name="U" d="M210 455Q210 425 211 395T213 336V252Q213 229 213 200T213 140T208 81T196 30T173 -6T136 -20Q100 -20 79 7T47 74T32 163T29 254V273Q29 279 29 285T28 298V324Q28 375 29 424T30 531V557Q30 579 30 600T29 644V682Q29
685 29 691T29 703T32 713T38 718Q43 718 48 715T53 709V698Q53 653 52 609T51 520V402Q51 369 52 328T52 253V223Q52 196 53 167T59 112T70 66T87 34L95 25Q104 13 112 10T132 7Q134 7 137 7T143 9L151 13Q165 19 173 39T185 86T190 143T191 203V437Q191 460 191
482T190 528V543Q190 551 190 557T191 570V595Q191 603 191 612T189 634V641Q188 650 188 658T187 677Q187 682 187 685T188 694V695Q188 697 189 704T192 712L196 713Q205 713 208 696T211 658Q211 650 211 642T210 626V455V455Z" />
<glyph unicode="V" glyph-name="V" horiz-adv-x="219" d="M228 716Q226 696 224 680T220 647V646Q220 643 219 640T218 634L200 521L184 410Q175 355 168 301T152 193Q146 153 140 112T128 30Q125 7 117 -6Q105 -6 104 -3L102 -5V-4L96 39V40L70 195Q64 230 59
268T50 341Q45 373 40 405T29 469V470Q23 511 17 551T4 629Q-1 659 -2 676T-5 707Q-5 711 -5 712T-6 718H3Q10 718 14 710Q16 692 19 673T27 631Q32 607 37 579T46 516Q48 502 50 486T55 451Q60 419 66 381T77 296L80 271Q83 248 85 224T93 179Q96 164 97 151T101
124Q103 110 105 95T111 67Q115 91 120 124T130 191T140 258T149 316Q154 348 158 381T168 447V448L208 718H216Q228 718 228 716Z" />
<glyph unicode="W" glyph-name="W" horiz-adv-x="381" d="M385 717Q387 715 388 715Q388 713 388 712T387 709Q386 707 386 704T386 697L380 649Q379 638 378 626T375 602L353 427Q351 405 348 385T343 346Q340 322 337 298T331 247Q326 203 320 165T307 85V83Q307
80 306 78T305 73Q307 77 305 67T301 46V45Q299 30 297 14T291 -2Q289 -2 288 -5T285 -13H281Q277 -13 273 -7Q270 0 267 14Q260 52 256 92T246 172L240 228Q237 259 234 280T228 321Q226 338 223 355T216 397L191 598Q180 532 173 466T157 330L138 177Q138 173
136 165V164Q134 147 130 117T121 59T108 10T93 -11Q85 -4 80 19T72 66V67L69 86Q64 118 60 149T51 212Q43 266 36 325T22 446T9 570T-1 691Q-2 696 -2 703T-2 715Q-2 718 4 718Q8 718 12 717T17 714L29 615L37 524Q39 501 41 478T46 432L51 387Q55 349 59 314T70
238Q73 221 76 203T81 167Q84 139 87 112T96 60Q104 109 111 158T124 254Q128 286 132 319T141 387V388Q144 411 146 429T151 466L161 546Q162 557 163 567T166 587L172 633L178 675Q180 680 195 680Q197 680 199 680T203 679Q205 678 206 664T210 638Q211 630
212 620T212 615L223 534Q226 514 228 493T233 451L245 357Q250 322 253 291T260 231Q264 192 269 152T282 64Q293 128 300 190T316 316L330 422L339 499L348 577Q350 597 353 618T359 659V664L361 680Q362 689 363 697T367 709V711Q370 718 380 718Q382 718 383
718T385 717ZM285 -14V-15V-14Z" />
<glyph unicode="X" glyph-name="X" horiz-adv-x="188" d="M185 713L164 621L146 539L130 467Q115 402 107 355V351Q112 327 119 298T136 232Q147 194 158 149T183 51V50Q187 36 189 24T193 1V0Q191 -2 184 -2Q179 -2 175 0L142 136Q140 143 134 166T119 217T104
270T91 305V303L84 279Q76 250 66 215T44 132L13 -10Q12 -9 7 -9T0 -9Q-3 -9 -4 -10Q-4 -8 -4 -7T-3 -2V-1Q-2 7 -1 13T2 28L5 46L11 75Q16 104 21 126T33 170L46 225Q48 233 51 245T59 272Q67 295 72 318T79 353V356L58 444Q47 495 35 548T12 661Q9 675 7 688T0
715Q1 721 12 721Q14 721 16 721T19 720L39 633Q51 579 63 523T88 408Q91 391 93 386V388Q112 470 124 523T143 610T154 664T160 700Q162 714 174 720L180 722Q185 722 185 720V713ZM186 711Q185 712 185 713Q186 714 186 714T186 717V711ZM-5 -10Q-5 -10 -4 -10H-5ZM194
0Q193 0 193 1Q194 0 194 0Z" />
<glyph unicode="Y" glyph-name="Y" horiz-adv-x="188" d="M101 -1Q99 -3 94 -4T86 -6Q81 -6 80 5T78 27Q79 72 79 98T80 137T81 156T81 167Q81 180 81 191T82 214V215Q82 226 82 236T83 258V334Q71 397 56 453Q45 502 34 552T12 661L8 680Q6 689 4 700T1 717Q1
723 12 723Q16 723 19 720L48 591Q59 543 71 491T93 388Q111 467 123 520T142 607T154 663T160 700Q162 708 166 714T179 721Q184 721 185 720T186 715Q186 708 181 683T166 626Q161 605 156 583T146 539L123 434Q118 407 113 384T102 334V332Q102 315 102 298T103
263Q104 236 104 211T105 163Q105 122 105 82T101 -4V-1Z" />
<glyph unicode="Z" glyph-name="Z" horiz-adv-x="248" d="M224 21Q226 21 226 21T229 22Q240 22 243 15V4Q243 3 238 2T225 0T209 -1T197 -2H189Q165 -2 142 0T95 3H88Q71 3 53 0T18 -4Q8 -4 7 1T5 9Q5 13 7 19T12 31L15 39Q32 89 48 139T79 243L88 275Q102 323
117 374T147 474L183 588Q191 613 198 636T214 683V696Q206 700 200 700H192Q190 700 187 700T182 699H171Q146 699 131 697T105 695H40Q28 695 28 707V714Q29 719 32 720T43 721H53Q60 721 67 720T83 718H93Q96 718 99 718T105 719H226L227 720Q232 720 237 716T242
703Q242 701 241 695T238 682T235 669T234 663V664Q230 652 226 641T216 617Q207 599 200 576T187 526T172 473T153 420V419Q136 377 124 333T100 244L79 168L57 87Q57 85 55 77T50 59T42 37T33 17Q40 17 46 18T58 19Q70 19 83 20T111 22Q125 22 138 22T165 21H224V21Z"
/>
<glyph unicode="[" glyph-name="bracketleft" horiz-adv-x="120" d="M114 741Q114 739 114 739T115 737Q115 732 115 729T116 724L118 722Q118 719 116 718T104 716Q102 716 98 716T89 715Q84 714 78 714T69 714V703Q71 690 71 674T70 643V241Q70 192 70 148T70
68T70 7T69 -28Q69 -33 69 -42T68 -58V-116Q68 -124 68 -130T69 -148V-158L98 -162Q106 -162 113 -163T126 -165V-176Q126 -184 124 -185T111 -187Q109 -187 94 -187T65 -186H46Q44 -186 43 -183T42 -163V-59Q42 -52 42 -29T42 27T43 100T43 182V496Q43 507 43
517T44 538V580Q44 600 44 621T42 664Q41 681 41 700T41 737Q41 736 42 737Q47 737 57 737T78 736T100 734T114 732V741ZM127 -165H126Q126 -164 126 -164T127 -165Z" />
<glyph unicode="\" glyph-name="backslash" horiz-adv-x="190" d="M132 275Q134 262 141 234T158 174T174 116T184 80L187 64Q189 50 191 38T199 12Q199 2 192 -4T178 -11Q173 1 169 15T162 47Q155 84 144 126T119 214T94 305T72 393Q62 439 50 481T26 564T5 645T-8
727Q-7 733 1 738Q14 728 16 719Q25 669 34 630T53 556T71 492T90 428T110 358T132 275Z" />
<glyph unicode="]" glyph-name="bracketright" horiz-adv-x="120" d="M26 -191Q22 -184 22 -177Q22 -170 34 -169T63 -168H70V-157Q69 -146 69 -135T69 -111Q69 -72 69 -10T69 124T69 269T69 406T70 514T71 574V633Q71 651 71 662T70 693V704L42 708H32Q21 707
17 708T12 721Q12 729 14 731T29 733Q31 733 43 733T68 732H92Q96 732 96 729T97 709V605Q97 598 97 575T97 519T96 446T96 364V97Q96 86 96 75T97 50Q97 39 97 29T96 7V-34Q96 -54 96 -75T98 -118Q99 -135 99 -155T99 -192Q98 -191 98 -191Q93 -191 83 -191T61
-190T40 -188T26 -186V-191Z" />
<glyph unicode="^" glyph-name="asciicircum" horiz-adv-x="300" d="M133 689V690L135 697Q140 713 154 723Q162 710 168 697T177 667Q182 641 187 621T199 581L202 573V572Q210 548 216 526T230 478Q229 477 224 477Q220 477 220 477L212 479Q198 517 188 553T166
631Q161 644 158 657T150 685Q140 663 130 629T111 553L107 541Q104 526 100 511T88 482L85 478Q83 478 82 477Q77 477 77 477T76 479V480L74 488V489L86 531Q92 550 97 570T108 613L122 659L133 689Z" />
<glyph unicode="_" glyph-name="underscore" horiz-adv-x="250" d="M243 -45Q247 -52 247 -59Q247 -67 246 -68Q241 -68 236 -68T226 -67L195 -65H119H64H48H10Q7 -60 7 -56T4 -47H70Q81 -47 98 -47T126 -48Q134 -48 143 -48T161 -47Q171 -47 180 -47T200 -46Q211
-46 222 -46T243 -48V-45Z" />
<glyph unicode="`" glyph-name="grave" horiz-adv-x="92" d="M71 591Q72 589 72 587Q72 585 71 584T60 583L56 586Q51 588 48 590T42 596Q38 600 32 606T19 619T8 632T3 642Q3 646 5 648T15 651Q20 651 22 650T30 644L31 643Q42 628 51 617T71 591Z" />
<glyph unicode="a" glyph-name="a" horiz-adv-x="168" d="M145 182Q145 159 146 129T148 72Q148 55 147 40T138 12T117 -7T78 -14H73Q59 -11 48 0T30 27T18 62T14 101Q14 161 31 201T95 258Q96 258 100 258T110 262T119 273T123 296V380Q123 381 123 382T122 385V390Q122
406 120 426T115 463T106 491T92 503Q88 503 82 499T70 488T58 473T49 457Q45 450 41 444T31 438Q24 438 24 451Q24 469 32 483T51 508T73 523T91 528Q107 528 118 514T135 475T143 417T146 347Q146 324 146 297T145 244V182ZM112 19Q121 26 123 44T126 85Q126
95 126 113T125 150T124 184T123 204V237Q103 237 82 226T47 179V178Q42 163 40 144T37 104Q37 90 38 75T45 51V50Q58 29 63 20T83 10H89Q92 10 97 12T112 19Z" />
<glyph unicode="b" glyph-name="b" horiz-adv-x="176" d="M25 271Q25 306 25 331T24 374V417Q24 442 24 469T26 532Q27 534 27 540T27 556V569Q27 582 27 597T26 630V728Q26 739 27 747T35 756Q38 756 41 756T47 753L48 757V738Q46 718 46 703T47 673V525Q59 528
70 528Q85 528 101 525T127 511Q144 492 149 467T160 404Q163 375 163 334V317Q163 303 163 279T161 217Q161 211 161 200T160 184Q160 171 160 157T158 125V112Q157 86 155 63T147 25V24Q143 13 135 5T117 -10Q109 -14 101 -15T84 -16H64V-15Q52 -14 43 -6T30
19Q26 51 26 79T25 142V271ZM64 -16V-18Q63 -17 64 -16ZM45 330Q45 312 45 289T46 239Q46 231 46 223T47 205V95Q47 87 47 77T49 52V51Q58 7 75 7Q81 7 88 8T106 14V15Q112 20 117 27T128 54Q131 62 133 92T137 180Q137 202 137 224T138 267T138 303T138 329Q138
375 135 407T126 460Q119 479 110 491T92 506Q90 507 87 507T81 507Q64 507 47 493V485Q45 458 45 424T45 352V330Z" />
<glyph unicode="c" glyph-name="c" horiz-adv-x="168" d="M141 104Q155 100 155 84Q155 67 150 46T140 14Q133 -1 122 -8T97 -15Q78 -15 62 -2T37 34V35Q28 56 26 82T24 134V229Q22 256 22 282T22 338V393Q23 422 26 453T41 508V509Q47 522 59 528T85 534Q92 534
106 532T125 528Q136 519 144 496T153 446Q153 440 152 436V433Q152 427 146 427H141V428Q134 433 133 440T130 455Q130 457 130 457T129 459V461Q125 486 115 498T94 510H84Q58 496 51 462T44 387Q44 375 44 364T45 342V322Q46 297 46 268T47 213Q47 201 47 191T46
168V127Q46 108 47 90T53 54Q59 30 71 22T94 14H98Q110 16 117 32T129 75V77Q129 79 129 80T130 84Q131 90 133 97T141 104Z" />
<glyph unicode="d" glyph-name="d" horiz-adv-x="191" d="M174 206Q174 178 173 150T170 85Q168 65 164 47T152 11Q147 0 139 -9T118 -19H108Q79 -19 68 -8Q41 15 33 50V51Q29 64 28 86T25 140Q25 172 25 201T24 259V275Q24 284 24 292T25 308V337Q25 365 25 388T27
434V435Q28 455 34 471T51 500Q73 521 100 522H107Q130 522 144 508V531Q144 594 143 640T137 733V737Q137 742 137 746T138 751H145Q149 751 157 747Q157 741 159 739Q161 725 163 707T165 664V652Q165 646 165 636T164 602Q164 596 164 587T165 563Q165 553 165
541T166 515L174 206ZM147 95Q149 115 150 135T151 177Q151 190 151 204T150 232Q148 306 147 350T145 410V420Q143 450 139 465T129 487Q116 503 106 503Q101 503 92 497L84 495V493Q74 486 67 479T54 453Q48 429 47 393T46 328V144L49 109Q52 78 55 59V58Q67
19 84 8Q97 -1 105 -1Q108 -1 111 0T120 5Q129 13 136 35T147 95Z" />
<glyph unicode="e" glyph-name="e" horiz-adv-x="167" d="M152 107Q158 101 158 83Q158 53 154 36T141 8T122 -5T98 -11Q79 -11 59 1T31 51L30 57Q25 69 22 100T18 169T16 247T15 318Q15 380 19 422T31 489T52 526T83 537Q104 537 117 526T137 488T148 414T154
295Q151 285 136 285Q132 285 118 285T65 288Q57 288 51 288T39 286V271Q39 264 39 258T38 245Q38 186 40 143T48 70T68 27T106 12Q115 12 119 15T125 27T130 49T138 83V87Q141 102 152 104V107ZM52 483Q44 458 41 432T38 375Q38 359 38 345T39 317V308Q49 308
61 308T91 306Q99 306 112 307T128 308V318Q128 384 126 423T118 482T104 508T86 514H81Q73 512 66 507T52 484V483Z" />
<glyph unicode="f" glyph-name="f" horiz-adv-x="134" d="M150 657Q151 655 151 652V646V642Q151 636 141 636Q137 636 134 638T130 646V647Q125 685 114 705T90 726Q77 726 69 714T49 674V673Q44 656 42 626T40 566V529Q40 521 40 511T39 489Q39 484 39 480T39
468T39 448T41 416V353Q51 353 60 354T86 355Q111 355 113 349V348L115 340Q115 335 109 334T98 332Q90 333 85 333T76 333Q65 333 57 332T41 328V318Q41 287 41 260T43 200V79Q43 72 43 66T44 52V38Q44 20 43 7T38 -14Q31 -14 26 -11T19 -1V2Q19 6 19 13T18 30Q18
31 18 41T20 67T21 103T22 143Q22 162 22 179T20 215T19 256T18 306V330Q18 335 18 346T18 373T19 405T19 441V530Q19 582 20 618T26 677V678Q33 706 47 726T93 747Q100 746 109 741T126 725T141 699T150 662V657Z" />
<glyph unicode="g" glyph-name="g" horiz-adv-x="198" d="M52 24Q36 52 31 94T25 175Q25 195 25 209T24 235Q24 242 24 248T23 261V316Q23 331 23 345T24 376Q24 392 24 407T26 439Q35 482 58 508T108 534Q134 534 155 510L159 504Q168 489 172 474T178 441V258Q178
238 178 218T179 177Q180 156 180 135T181 90V-57Q181 -68 181 -79T182 -105Q183 -124 183 -145T184 -193Q184 -246 179 -279T163 -330T141 -354T113 -361Q97 -361 77 -350T49 -314Q44 -300 41 -289T36 -260T33 -216T30 -147Q31 -136 36 -130Q50 -130 52 -147T55
-190Q55 -214 56 -240T63 -288T80 -324T113 -338Q123 -338 132 -333T147 -314Q151 -309 156 -274T162 -185Q162 -172 162 -154T161 -112Q160 -80 160 -44T159 26V31Q148 12 136 -1T103 -15Q88 -15 74 -6T52 23V24ZM47 179Q47 150 47 128T51 92Q54 79 58 64T70 36T85
14T102 5Q114 5 124 17T141 48T152 93T156 145V168Q156 178 156 188T155 216Q155 231 155 246T156 276Q157 292 157 311T158 349Q158 382 157 412T150 464T135 500T107 513Q75 513 61 479T47 394V179Z" />
<glyph unicode="h" glyph-name="h" horiz-adv-x="182" d="M162 231Q162 174 162 132T163 60V-6Q163 -7 158 -7T151 -7Q146 -7 144 3T140 27T138 55T138 77Q138 88 138 100T139 127Q140 144 140 164T140 208V307Q140 362 140 398T136 457T128 488T112 497Q91 497
79 479T59 435T49 383T46 342Q46 322 46 302T45 263V194Q45 170 45 151T47 112Q48 92 48 69T49 16Q48 4 36 -1Q30 3 29 11T25 30V115Q25 130 25 149T24 188Q23 209 23 236T23 284Q23 372 22 434T20 542Q19 564 19 585T19 620Q19 652 19 669T19 698T19 720T20 748Q37
748 40 735T42 705V662Q42 651 42 641T41 616Q41 592 41 568T44 512V466Q45 469 46 471T48 476Q56 496 72 506T106 518Q122 515 131 512T146 501Q152 490 155 467T159 416T161 357T162 301V231V231Z" />
<glyph unicode="i" glyph-name="i" horiz-adv-x="94" d="M37 342Q37 370 37 398T36 449T36 489T35 513Q35 538 49 538Q51 538 54 536T58 527V293Q58 225 58 183T59 107V20Q59 -5 46 -5Q44 -5 41 -3T37 6V342ZM52 638Q49 638 46 639T39 645T34 660T32 690Q32 709
33 727T40 746Q46 746 50 738T56 718Q57 710 58 694T59 663Q59 653 58 646T52 638Z" />
<glyph unicode="j" glyph-name="j" horiz-adv-x="108" d="M69 673Q69 647 66 631T54 615Q46 629 45 651T43 701Q43 709 43 720T44 741T49 758T57 765Q65 765 67 757T70 739V721Q70 713 70 702T69 673ZM73 110Q73 78 73 46T74 -18Q76 -47 76 -85T76 -156Q76 -191
73 -225T61 -286T38 -329T4 -346Q-5 -346 -12 -342T-25 -330T-34 -316T-38 -303Q-38 -300 -27 -300Q-21 -300 -18 -302T-10 -307Q-3 -311 1 -313T7 -316Q18 -316 26 -303T41 -268T50 -219T53 -161V-110Q54 -85 54 -61T54 -10Q54 31 54 71T53 153Q52 194 52 234T51
317V518Q56 518 61 516T67 510Q70 443 72 373T74 234Q74 224 74 215T73 197V110Z" />
<glyph unicode="k" glyph-name="k" horiz-adv-x="193" d="M177 512L163 481L153 457V456Q145 434 137 414T120 373V372L105 326V313Q122 311 135 306T156 280Q168 245 169 206T171 127V104Q171 81 173 59T178 15V8Q178 1 175 -4T165 -10Q160 -10 158 -5T154 5L152
96Q150 193 144 240T113 288Q98 288 87 279T68 253T56 215T52 169Q52 104 55 37V27Q55 18 54 8T50 -7Q43 -7 39 -1T33 14T31 34T30 54V114Q30 195 30 240T29 313V406Q29 418 29 430T30 455Q30 488 30 520T28 584Q27 616 27 648T26 715Q26 720 26 727T27 742T31
755T39 760Q43 760 46 751T50 727Q50 721 50 716T49 704V703Q49 696 49 690T48 679Q48 661 48 646T49 616V399Q49 369 49 340T51 280V275Q66 304 83 343T115 420Q119 428 122 438T129 460Q137 487 146 509T165 531Q178 531 178 518Q178 516 177 513V512Z" />
<glyph unicode="l" glyph-name="l" horiz-adv-x="94" d="M93 -14L92 -19Q91 -23 84 -23Q82 -23 80 -23T73 -20L64 -11Q52 1 45 26T35 83T32 147T31 210V412Q31 479 31 529T30 622Q30 654 30 681T29 737Q29 762 42 762Q45 762 48 760T52 750Q52 655 52 585T52 464T52
381T51 327T51 294T51 272V218Q51 156 53 117T60 55T72 20T87 1L93 -14Z" />
<glyph unicode="m" glyph-name="m" horiz-adv-x="255" d="M233 51Q233 49 233 46T234 41V39Q235 33 236 27T237 14Q237 6 233 0T220 -7L215 -3Q214 -1 214 6T214 23V292Q214 312 214 331T215 371V381Q215 397 215 419T211 460T201 494T180 508Q166 508 159 496T148
465T143 425T142 388V151Q142 117 142 84T143 17Q143 10 141 1T134 -8Q129 -8 126 4T122 35T120 75T119 117Q119 145 119 171T120 223Q120 233 120 246T120 274T121 302T121 326V371Q121 392 120 416T115 460T103 494T82 508Q71 508 65 500T54 478T49 449T47 418Q47
399 47 390T48 372V341Q48 321 48 297T47 247V155Q47 138 47 123T48 90Q49 74 49 58T50 24Q50 17 48 7T41 -3Q30 -3 30 17Q30 65 30 113T28 211Q27 259 27 308T26 405V424Q26 483 39 508T76 533Q93 533 108 521T131 485V486Q137 513 152 521T188 529Q206 529 215
510T228 462T233 401T234 343Q234 323 234 304T232 266Q231 247 231 229T231 191Q231 156 231 121T233 51Z" />
<glyph unicode="n" glyph-name="n" horiz-adv-x="194" d="M166 160Q168 145 169 116T170 56V43Q170 25 169 13T159 0Q154 0 152 7T148 26T147 52T146 80V254Q146 271 146 287T147 321Q147 375 144 426Q141 476 133 494T102 513Q95 511 86 504T70 486T57 461T51
430Q49 414 49 401T48 372V321Q48 308 48 296T49 271Q50 236 50 192T50 110V54Q50 34 49 16T43 -3Q37 -3 37 -4V-2Q33 1 31 9T27 29T26 52T26 74V297Q26 335 27 371T30 445V446Q32 480 45 497T78 527Q83 529 90 531T106 533Q121 533 134 527T155 506Q163 488 164
462T166 406V160Z" />
<glyph unicode="o" glyph-name="o" horiz-adv-x="245" d="M240 327Q242 308 243 287T245 240Q245 227 245 214T243 184Q241 156 237 126T224 65Q214 27 192 6T138 -16H127Q71 2 43 66T10 249V281Q10 301 12 317T19 355Q27 393 39 430T69 496Q77 507 96 522Q112
532 130 532Q157 532 177 508Q188 497 194 485T206 458Q231 401 240 327ZM222 249Q222 276 220 305T213 360Q208 380 204 398T194 430Q191 438 186 448T177 466V467Q151 511 130 511Q123 511 115 507T97 496Q89 489 70 453V452L60 425Q55 413 51 401T43 375V374Q35
343 33 311T31 245Q31 213 35 182T47 122Q71 32 125 15Q127 14 131 14T137 14Q152 14 165 21T189 46Q205 76 212 125T222 235V249Z" />
<glyph unicode="p" glyph-name="p" horiz-adv-x="201" d="M185 279Q186 258 186 235T186 188V155Q186 119 182 86T167 26Q158 5 144 -3T112 -12Q98 -12 84 -7T59 10V3Q59 -26 59 -54T60 -111Q60 -140 60 -168T61 -224Q61 -249 61 -272T60 -319Q60 -322 60 -326T59
-335Q59 -344 59 -351T58 -362L55 -365Q45 -365 41 -357T37 -335V-321Q37 -310 37 -289T38 -222Q40 -202 40 -182T40 -141Q40 -114 40 -89T37 -36L35 98L32 234L30 273V274Q28 301 27 328T26 383Q26 409 27 432T35 479V480Q43 512 64 526T108 541Q130 541 138 534Q154
522 163 501T177 454T183 398T185 337V279ZM130 21Q141 28 147 45T157 85T162 135T163 190V224Q163 240 163 254T163 281Q162 287 162 298T162 323Q162 338 162 355T160 388T158 420T156 445Q151 480 138 501T110 523Q107 523 103 523T96 522V521Q88 517 79 505T60
478Q56 469 54 456T50 428T49 398T48 369Q48 346 49 324T51 281V280Q52 265 52 251T53 223Q53 214 53 205T54 186Q55 154 56 123T64 64V63Q73 38 85 26T109 14Q119 14 130 20V21Z" />
<glyph unicode="q" glyph-name="q" horiz-adv-x="213" d="M188 415Q189 330 189 247T190 73Q190 50 190 27T188 -19Q187 -42 187 -64T186 -109Q186 -123 186 -138T187 -168Q188 -185 188 -203T189 -241Q189 -292 186 -341V-361Q186 -366 181 -370T170 -374H165Q162
-365 162 -346Q162 -340 162 -334T163 -321Q164 -314 164 -307T164 -291V-242Q164 -230 164 -218T165 -193Q165 -173 165 -154T164 -115Q163 -98 163 -76T163 -36V10Q154 -1 140 -8T111 -15Q88 -15 70 5T41 65Q33 100 31 132T26 200V248Q26 260 26 273T25 301Q25
324 25 346T27 392Q32 452 52 489T106 527H118Q152 527 166 502T188 414V415ZM164 186Q165 217 165 247T166 308Q166 326 166 341T165 375Q165 418 158 455T128 504Q126 506 120 509T112 512Q95 512 81 491T58 438Q51 412 50 383T49 323Q49 273 49 231T52 149Q54
108 61 84T83 34V33Q102 6 115 6Q124 6 133 16T152 46Q160 66 161 91T163 143Q163 154 163 164T164 185V186Z" />
<glyph unicode="r" glyph-name="r" horiz-adv-x="138" d="M122 514Q129 507 134 501T142 486Q142 485 142 485T141 484V483Q135 479 132 479Q120 479 120 482T118 487V486Q115 486 113 491Q105 498 97 503T83 509H79Q62 499 57 474T52 423Q51 408 51 394T51 365Q51
339 51 314T52 262Q52 236 52 211T53 160Q53 124 52 87T48 14Q46 2 40 2Q35 2 32 5Q28 10 28 15T27 29V156Q27 184 28 212T29 268Q29 293 29 317T27 367V393Q27 400 27 407T26 423Q26 440 27 455T34 485Q42 508 56 521T88 534Q111 534 122 516V514ZM142 485Q142
483 142 482T141 479V483Q141 484 141 484T142 485ZM143 484Q142 484 142 485Q143 485 143 486Q142 486 142 485V486L143 487V484Z" />
<glyph unicode="s" glyph-name="s" horiz-adv-x="145" d="M117 403Q114 410 114 419V429Q114 432 114 434T115 442Q115 463 110 480T95 506Q89 516 81 516Q75 516 71 515T63 512Q57 511 52 504T43 486T36 463T33 439Q33 415 37 399T46 368Q51 354 57 337T69 308H70V303Q76
289 82 278T94 256Q110 227 124 195T139 116Q139 93 137 72T130 33T116 3T94 -14V-15Q92 -16 84 -16Q54 -16 33 20T12 111Q12 122 14 136T24 150Q30 150 31 149Q35 141 35 133V111Q35 94 36 85T38 69Q38 67 38 66T39 63V61Q44 38 56 21T80 4Q94 4 105 31T119 94V95Q119
147 104 183T71 253Q60 271 51 290T36 326L28 351Q20 374 15 391T10 436Q10 450 13 471T26 508Q34 521 47 528T75 536Q92 536 105 527T124 495Q129 481 132 465T136 431Q136 423 134 412T125 401Q121 401 121 401T119 403V404L117 406V403Z" />
<glyph unicode="t" glyph-name="t" horiz-adv-x="148" d="M131 73Q131 71 131 71T130 69V67Q123 41 116 24T95 6Q85 7 79 18T68 45T62 82T60 121Q60 136 60 147T61 169V197Q62 244 61 300T60 403V423Q60 436 60 449T60 472T63 488T68 495L74 496L112 499Q120 501
120 503Q120 508 116 514T104 520Q98 520 92 520T80 518Q74 517 68 516Q64 516 62 527T60 554T59 584T60 606V711Q60 713 56 714T46 716H42Q42 717 38 703T34 673V639Q34 611 34 597T36 575T37 558T38 531Q38 514 33 514Q22 514 18 515T5 522Q3 516 1 509T-1 498Q-1
491 6 489T20 486H37V476Q36 422 37 359T39 241V181Q39 166 39 151T38 120Q38 95 40 71T49 27T67 -5T96 -18Q121 -18 132 4T148 58V59Q149 64 149 71Q149 86 141 86Q136 86 135 84T133 80L131 73ZM42 719V716Q41 717 41 717Q41 718 42 719Z" />
<glyph unicode="u" glyph-name="u" horiz-adv-x="204" d="M180 408Q181 321 181 267T181 186Q181 148 181 112T175 46T157 -1T118 -19Q92 -19 76 -7T51 27T37 78T32 142Q31 176 30 212T28 282V302Q28 336 27 366T25 430V440Q25 449 25 464T26 493T31 518T39 528Q44
528 48 523T52 510Q52 493 52 478T51 446V382Q51 350 51 324T52 265V234Q52 185 53 143T61 71T78 23T111 5Q128 5 137 24T152 74T158 140T160 210Q160 279 157 347T154 494Q154 502 155 514T163 526Q179 526 179 504Q179 499 179 495T178 485V468L180 408Z" />
<glyph unicode="v" glyph-name="v" horiz-adv-x="151" d="M138 528Q138 524 143 524Q157 524 157 521Q157 520 157 520T156 519L115 176L111 132Q109 111 107 91T102 49V48Q102 45 102 43T101 35Q99 21 97 6T84 -9Q76 -5 73 10T68 36L67 45V46Q63 99 55 152Q50
191 44 226T32 298L18 380L12 419Q8 441 5 462T0 507V516Q0 523 7 525Q19 525 20 521L27 485L31 461V460L35 433L50 325Q55 297 58 268T67 209Q72 178 76 149T85 88L94 161Q99 204 104 247T113 332L119 395L126 463Q128 486 130 499T138 528Z" />
<glyph unicode="w" glyph-name="w" horiz-adv-x="243" d="M243 520Q248 517 248 516T249 513V498Q247 481 246 468T242 441V440L236 389Q230 338 224 288T212 188Q211 180 210 170T206 151Q203 122 201 98T196 45Q195 39 194 32T191 17T186 4T179 -1Q171 -1 169
12T166 38Q166 43 166 47T165 56Q164 78 162 96T158 132L153 171Q147 233 140 297T124 413Q122 382 119 346T110 274Q107 249 104 223T98 171Q97 160 96 150T93 128Q91 111 89 94T86 56V46Q85 31 83 15T71 -1Q68 -1 65 4T61 16T58 31T56 45L52 84L44 151Q41 175
39 201T34 251Q31 286 27 320T18 389V390L12 426Q9 444 7 461T3 500V513Q3 515 3 516T9 520Q13 520 17 519T21 516V514Q22 509 24 497T28 472T31 447T34 427L46 325Q51 296 53 267T59 209Q61 180 64 152T70 95Q72 123 75 146T80 189Q82 210 85 233T90 286L96 348Q98
359 99 371T102 399Q104 416 106 439T114 480Q116 487 126 487Q132 487 134 485T139 477Q141 470 142 458T144 433Q144 427 144 422T145 410Q147 393 149 377T153 346Q156 330 158 316T161 287V286Q163 253 166 229T172 182Q174 162 176 142T182 95L206 325L218
427Q218 433 219 445T223 470T227 496T230 514V516Q230 518 234 519T241 520H243ZM243 520V522V520Z" />
<glyph unicode="x" glyph-name="x" horiz-adv-x="161" d="M166 3Q166 -5 162 -6V-8Q161 -9 152 -9Q147 -9 146 -8L145 -6V-2Q131 35 121 70T100 144V145L77 232V231L59 147Q51 113 44 80T29 14V12Q28 7 26 3T23 -7Q21 -12 10 -12L5 -9Q4 -9 2 -9T0 -12V-11Q6 24
14 59T32 129Q40 162 47 196T63 270V274Q50 340 37 401T6 523L7 522Q10 529 25 529L32 527Q41 488 48 452T65 377L76 326L91 388L124 525Q125 528 139 528Q140 527 140 526Q142 525 146 525Q147 525 148 524V523Q131 457 116 399T90 280V274Q96 252 100 233T110
195Q118 160 126 129T147 63L166 3Z" />
<glyph unicode="y" glyph-name="y" horiz-adv-x="204" d="M178 88Q178 80 178 73T177 58V28Q177 0 177 -22T178 -67Q179 -91 179 -117T180 -182Q180 -217 177 -261T163 -336Q161 -341 156 -349T143 -366T125 -380T104 -386Q86 -386 72 -380T48 -357T33 -312T27
-239Q27 -225 29 -216T40 -206Q53 -206 55 -216Q54 -225 54 -233T54 -251Q54 -285 57 -306T65 -340T77 -356T93 -361Q100 -361 109 -357T128 -343T144 -318T153 -279Q157 -239 157 -198T158 -98Q158 -77 158 -60T158 -26T157 6T155 41V44Q144 18 130 2T98 -15Q60
-15 44 38T27 185Q27 197 27 208T28 231V328Q28 374 28 397T26 440Q25 455 25 477T25 532Q25 547 34 547Q47 547 49 534T51 500V335Q51 304 51 274T50 212Q50 172 50 136T55 71T69 26T97 9Q113 9 124 23T142 63T152 120T155 188V375Q155 391 155 406T154 439V491Q154
502 154 515T153 539Q153 548 154 554T160 560Q172 560 174 551T176 531V519Q179 454 179 388T180 257V191Q180 165 180 140T178 88Z" />
<glyph unicode="z" glyph-name="z" horiz-adv-x="158" d="M150 23L146 5Q144 3 141 2T131 0T112 -2T81 -3H60Q52 -3 45 -3T29 -7Q10 -6 8 15V18Q23 69 36 126T63 239Q69 266 76 292T88 341Q96 370 101 399T112 455V456Q113 464 114 471T117 487V499Q107 499 99
499T81 497Q70 496 61 495T39 494Q19 494 10 507V515Q10 523 11 525H10H11Q12 525 13 525T16 526Q45 518 71 518Q82 518 93 519T115 523H121Q141 523 147 512Q147 510 147 508T148 503Q148 489 144 480Q141 476 139 468T135 453Q124 399 112 349T88 247Q75 195
60 129L54 104L38 34V22Q43 21 47 21T57 21Q66 21 75 22T94 25Q96 25 100 25T113 26Q116 26 122 28Q125 29 127 29T133 30Q144 30 149 22L150 23Z" />
<glyph unicode="{" glyph-name="braceleft" horiz-adv-x="155" d="M118 710Q102 701 97 678T91 624Q91 599 93 577T99 534L101 514V513Q105 484 108 452T112 390Q112 358 106 329T85 276V265Q98 242 103 214T108 155Q108 123 105 89T97 24L94 -2V-3Q94 -7 94 -9T93
-17Q91 -31 90 -47T89 -80Q89 -117 97 -143T128 -171Q131 -176 133 -179T135 -185Q135 -187 131 -191T118 -195Q106 -195 95 -183T77 -159Q69 -143 66 -123T63 -79Q63 -48 66 -17T74 45Q78 71 81 95T84 140Q84 169 80 194T67 238Q62 248 60 249T54 253Q47 257 42
260T36 266Q36 276 42 279T54 284Q56 285 57 285T64 291Q67 294 70 302T76 320T80 337T82 349Q85 363 86 376T87 403Q87 429 84 456T77 510Q73 539 71 568T68 625Q68 653 74 677T97 722V723Q100 727 107 731T122 736Q128 736 134 732T140 722Q140 719 134 717T122
713L118 711V710Z" />
<glyph unicode="|" glyph-name="bar" horiz-adv-x="111" d="M66 -216Q64 -221 59 -221Q51 -221 50 -201T49 -153V17Q46 77 46 127Q46 157 46 207T48 312Q48 338 48 367T49 423T50 475T50 515V584Q50 593 50 611T49 651T47 695T46 734Q46 740 46 744T45 753Q45
762 45 768T44 781Q43 788 43 794T42 807Q43 815 53 815Q63 815 64 801T66 773V742Q66 723 66 696T68 638Q68 609 68 581T69 534Q69 509 69 470T68 385Q67 363 67 340T66 294T65 252T65 219Q65 206 65 193T66 165V164Q68 150 68 137T68 108Q68 93 67 63T66 -2V-132Q66
-137 67 -142T68 -152V-188Q68 -193 68 -199T66 -215V-216Z" />
<glyph unicode="}" glyph-name="braceright" horiz-adv-x="157" d="M34 715Q29 717 23 719T16 724Q16 729 22 733T34 738Q41 738 48 734T59 725V724Q76 704 82 680T88 627Q88 599 86 570T79 512Q76 485 73 458T69 405Q69 392 70 379T74 351Q74 348 75 340T79 322T85
305T92 293Q97 288 98 288T102 286Q108 284 114 281T120 268Q120 265 115 262T103 256Q99 255 96 254T91 244Q81 224 77 198T72 142Q72 121 75 97T82 47Q86 16 89 -15T93 -77Q93 -101 90 -121T79 -157Q72 -167 61 -180T38 -193Q30 -193 26 -189T21 -183Q21 -180
23 -177T28 -169Q51 -167 59 -141T67 -78Q67 -61 66 -45T63 -15Q63 -10 63 -8T62 -1V0L59 26Q55 57 52 91T48 157Q48 188 53 216T71 267V279Q56 302 50 331T44 392Q44 422 47 454T55 515V516Q55 522 56 526T57 536Q60 556 62 578T65 626Q65 655 59 678T38 712L34
715Z" />
<glyph unicode="~" glyph-name="asciitilde" horiz-adv-x="300" d="M191 198L184 201Q181 202 178 203T171 205Q167 206 165 207V208Q152 221 147 231Q139 244 131 254T112 271H107Q98 271 91 266T79 244Q75 237 74 231T70 217V215Q70 214 64 214T56 214Q51 214
51 210Q51 253 69 275T110 298H118Q132 296 139 288T152 268Q160 257 168 246T185 229Q193 225 200 225Q211 225 219 237T230 279Q231 282 231 293Q231 295 231 296T230 299V305Q230 306 235 306H241V304Q250 292 250 277Q248 242 232 220T199 198H191Z" />
</font>
</defs>
</svg>
