<?xml version="1.0" standalone="no"?>
<!DOCTYPE svg PUBLIC "-//W3C//DTD SVG 20010904//EN"
 "http://www.w3.org/TR/2001/REC-SVG-20010904/DTD/svg10.dtd">
<svg version="1.0" xmlns="http://www.w3.org/2000/svg"
 width="1600.000000pt" height="1600.000000pt" viewBox="0 0 1600.000000 1600.000000"
 preserveAspectRatio="xMidYMid meet">
<metadata>
Created by potrace 1.11, written by Peter Selinger 2001-2013
</metadata>
<g transform="translate(0.000000,1600.000000) scale(0.100000,-0.100000)"
fill="#000000" stroke="none">
<path d="M10988 14246 c-2 -2 -73 -6 -158 -10 -226 -9 -531 -47 -710 -87 -25
-6 -54 -12 -65 -14 -11 -1 -40 -8 -65 -14 -25 -7 -52 -13 -60 -13 -8 0 -21 -5
-27 -11 -7 -5 -13 -7 -13 -4 0 3 -15 1 -32 -4 -18 -6 -41 -12 -51 -14 -10 -2
-57 -16 -105 -31 -48 -15 -90 -29 -94 -30 -5 -1 -9 -2 -10 -4 -4 -2 -41 -11
-55 -12 -7 -1 -13 -5 -13 -10 0 -4 -3 -7 -7 -7 -5 1 -11 0 -15 -1 -5 -1 -12
-4 -18 -5 -5 -1 -12 -4 -15 -5 -17 -9 -65 -22 -71 -20 -4 1 -10 -3 -13 -9 -4
-6 -16 -12 -26 -14 -11 -2 -36 -10 -55 -19 -19 -9 -64 -29 -100 -43 -91 -38
-333 -154 -340 -164 -4 -6 -35 -22 -50 -25 -3 -1 -33 -18 -68 -39 -35 -20 -67
-37 -73 -37 -5 0 -9 -3 -9 -7 0 -5 -32 -26 -70 -47 -39 -22 -70 -43 -70 -48 0
-4 -5 -8 -11 -8 -12 0 -102 -61 -107 -72 -2 -5 -8 -8 -14 -8 -6 0 -23 -10 -38
-22 -15 -13 -37 -30 -50 -38 -12 -8 -28 -19 -34 -25 -6 -5 -38 -30 -71 -55
-66 -49 -105 -81 -148 -122 -16 -16 -31 -28 -34 -28 -19 0 -442 -427 -443
-447 -1 -4 -14 -19 -30 -33 -17 -13 -30 -28 -30 -33 0 -4 -11 -18 -25 -31 -14
-13 -25 -26 -25 -30 0 -3 -8 -14 -17 -24 -19 -20 -49 -57 -73 -92 -8 -12 -23
-32 -33 -43 -10 -12 -26 -34 -35 -49 -9 -16 -20 -28 -24 -28 -4 0 -8 -7 -8
-15 0 -8 -4 -15 -10 -15 -5 0 -10 -6 -10 -13 0 -7 -11 -24 -24 -39 -14 -14
-22 -29 -19 -32 4 -3 1 -6 -5 -6 -7 0 -12 -6 -12 -12 0 -7 -11 -26 -25 -42
-13 -16 -27 -37 -30 -47 -4 -11 -11 -19 -16 -19 -5 0 -9 -6 -9 -13 0 -7 -15
-36 -34 -65 -19 -28 -32 -52 -29 -52 3 0 -1 -8 -9 -17 -9 -10 -28 -43 -43 -73
-15 -30 -30 -57 -34 -60 -5 -4 -62 -116 -66 -130 -1 -3 -25 -54 -53 -114 -29
-59 -52 -110 -52 -111 0 -2 -16 -38 -35 -79 -19 -42 -35 -82 -35 -89 0 -7 -5
-18 -12 -25 -7 -7 -8 -12 -4 -12 5 0 3 -7 -4 -15 -7 -8 -9 -15 -4 -15 5 0 3
-4 -3 -8 -7 -4 -14 -17 -16 -27 -2 -11 -10 -33 -16 -50 -7 -16 -14 -34 -16
-40 -1 -5 -7 -21 -12 -35 -6 -14 -9 -28 -6 -32 2 -5 -1 -8 -7 -8 -7 0 -10 -6
-7 -14 3 -7 1 -18 -3 -22 -5 -5 -11 -18 -13 -29 -2 -11 -7 -27 -10 -35 -12
-31 -40 -125 -39 -128 1 -1 -4 -18 -12 -37 -8 -19 -12 -35 -9 -35 3 0 0 -6 -6
-13 -6 -8 -8 -16 -6 -19 3 -3 1 -18 -6 -34 -6 -16 -12 -36 -14 -44 -2 -8 -9
-35 -15 -60 -6 -25 -11 -53 -11 -62 0 -10 -4 -18 -9 -18 -4 0 -7 -8 -5 -17 1
-10 0 -22 -3 -28 -3 -5 -7 -23 -9 -40 -2 -16 -6 -37 -10 -45 -3 -8 -7 -24 -9
-35 -5 -33 -12 -68 -19 -105 -4 -19 -7 -42 -7 -50 -1 -8 -4 -19 -8 -25 -4 -5
-6 -22 -5 -37 1 -16 -1 -28 -4 -28 -4 0 -8 -15 -9 -32 -1 -18 -4 -46 -6 -63
-11 -72 -18 -123 -21 -165 -2 -25 -4 -45 -5 -45 -4 0 -19 -214 -24 -331 -1
-38 -5 -75 -9 -81 -4 -5 -3 -13 0 -17 10 -10 10 -137 1 -142 -5 -3 -5 -10 -1
-17 10 -16 10 -58 1 -63 -5 -3 -5 -11 -1 -17 4 -6 8 -38 10 -72 5 -96 11 -195
18 -270 4 -38 8 -83 9 -100 2 -16 4 -32 5 -35 1 -3 4 -21 6 -40 6 -52 18 -138
30 -210 4 -19 8 -48 11 -65 9 -50 12 -68 22 -107 5 -20 7 -39 4 -42 -2 -3 1
-12 8 -21 7 -8 10 -21 7 -30 -4 -8 -2 -17 4 -21 6 -3 8 -12 5 -20 -3 -7 0 -16
5 -20 6 -3 9 -15 6 -25 -3 -11 0 -19 6 -19 6 0 8 -3 4 -6 -3 -3 1 -26 8 -52 8
-25 12 -49 9 -53 -2 -4 0 -9 5 -11 5 -1 12 -16 14 -33 13 -73 33 -120 52 -123
11 -1 85 12 165 29 80 17 160 32 178 34 17 1 35 5 39 8 3 4 19 7 34 7 15 0 31
5 34 10 4 6 10 8 14 6 4 -3 27 0 52 6 24 5 53 11 64 13 11 1 20 3 20 5 0 1 9
3 20 5 62 10 120 22 120 25 0 1 14 4 30 6 42 6 70 11 70 14 0 1 9 3 20 5 31 4
87 15 120 22 17 4 32 7 35 8 45 9 65 35 40 50 -6 4 -8 11 -4 16 3 5 0 16 -6
24 -6 8 -9 19 -6 24 4 5 1 13 -5 16 -5 4 -8 13 -5 20 2 7 2 16 -2 19 -3 4 -7
12 -8 19 -2 7 -6 23 -9 37 -4 14 -8 34 -10 45 -2 11 -4 20 -5 20 -2 0 -4 9 -6
20 -1 11 -6 34 -10 50 -3 17 -8 39 -9 50 -2 11 -4 20 -5 20 -1 0 -4 11 -6 25
-12 72 -16 97 -18 120 -2 14 -5 25 -6 25 -1 0 -4 18 -5 40 -2 22 -4 40 -5 40
-3 0 -7 27 -14 90 -3 28 -6 50 -6 50 -3 0 -22 270 -24 337 -1 21 -4 38 -8 38
-4 0 -3 14 2 30 6 21 5 28 -2 24 -7 -4 -8 -2 -4 5 10 16 14 111 5 111 -4 0 -4
14 1 30 5 18 5 30 0 30 -6 0 -6 10 0 25 6 15 6 26 -1 30 -5 4 -6 12 -2 18 11
17 10 90 0 105 -6 7 -6 12 -1 12 5 0 9 19 8 43 -1 23 1 45 3 50 2 4 6 37 8 75
5 103 14 204 21 237 8 38 15 85 15 107 0 10 5 20 10 23 5 4 7 10 4 15 -3 5 -1
28 5 52 6 24 13 57 15 73 5 31 12 66 15 75 1 3 2 8 2 11 -1 4 3 22 9 40 10 34
15 54 23 87 2 9 9 29 15 45 6 15 8 27 5 27 -4 0 -1 7 6 15 7 8 9 15 5 15 -4 0
-2 6 4 13 6 8 9 16 6 19 -3 2 6 32 19 67 14 34 26 65 27 69 22 83 177 442 230
533 15 25 30 56 34 67 3 12 11 22 16 22 5 0 9 6 9 14 0 8 7 22 16 30 8 9 13
16 10 16 -3 0 22 44 56 98 191 299 417 567 668 792 58 52 268 220 275 220 3 0
18 11 33 25 15 14 32 25 39 25 7 0 13 4 13 8 0 9 50 40 64 40 5 0 12 6 16 12
9 14 48 38 180 111 52 28 103 59 113 67 9 8 17 12 17 9 0 -3 45 16 100 44 55
27 103 49 108 49 4 0 29 11 57 24 27 14 53 22 57 20 5 -3 8 -1 8 4 0 5 10 12
23 15 12 3 66 21 120 40 53 20 97 33 97 30 0 -3 6 -1 13 5 6 6 29 13 50 17 20
4 40 11 43 16 3 5 9 7 14 4 5 -3 21 0 37 6 15 7 44 14 63 16 19 2 36 8 38 13
2 5 9 7 17 4 7 -3 16 -1 19 5 4 6 13 8 21 4 9 -3 21 0 29 6 7 6 16 8 19 5 3
-4 14 -3 24 1 10 4 32 9 48 11 29 4 65 10 75 14 3 1 16 3 30 5 14 1 27 3 30 4
3 2 23 5 45 7 22 2 58 6 80 8 129 14 202 18 405 18 200 0 278 -3 400 -16 54
-6 103 -14 130 -20 14 -3 42 -8 62 -11 21 -2 59 -10 85 -16 27 -6 57 -12 68
-13 23 -3 103 -24 125 -33 8 -3 29 -7 45 -9 17 -3 32 -9 33 -14 2 -6 7 -8 12
-5 10 6 264 -75 268 -86 2 -4 9 -6 17 -3 7 3 16 1 20 -5 3 -6 15 -11 26 -11
10 0 19 -5 19 -12 0 -6 3 -8 6 -5 4 3 16 1 28 -5 11 -7 24 -13 29 -14 4 -1 9
-3 12 -4 3 -1 8 -3 13 -5 13 -3 55 -22 147 -65 50 -23 91 -40 91 -38 1 1 10
-4 20 -13 11 -9 29 -20 41 -23 13 -4 29 -13 35 -19 7 -7 33 -22 58 -35 25 -12
63 -34 85 -48 22 -13 48 -27 58 -31 9 -3 17 -9 17 -14 0 -5 4 -9 10 -9 12 0
164 -101 168 -112 2 -4 8 -8 14 -8 6 0 24 -11 42 -25 45 -36 47 -38 85 -65 19
-14 42 -32 51 -40 9 -8 28 -24 41 -34 158 -126 372 -335 509 -498 19 -23 45
-52 58 -65 12 -13 22 -28 22 -33 0 -6 9 -15 20 -22 11 -7 20 -16 20 -20 0 -3
28 -44 63 -90 108 -143 247 -364 312 -493 17 -33 33 -61 38 -63 4 -2 7 -8 7
-13 0 -4 18 -45 39 -89 22 -45 43 -90 46 -101 4 -12 16 -42 28 -67 12 -26 22
-49 22 -52 1 -3 6 -16 12 -30 5 -14 21 -56 34 -95 13 -38 26 -72 29 -75 3 -3
5 -9 6 -15 1 -27 17 -86 25 -90 4 -3 6 -12 2 -20 -3 -8 0 -15 6 -15 6 0 8 -6
5 -14 -3 -8 0 -17 5 -21 6 -3 9 -11 6 -16 -4 -5 -3 -15 2 -21 4 -7 9 -24 11
-38 1 -14 5 -32 9 -40 3 -8 5 -19 4 -24 -1 -4 2 -13 7 -20 5 -6 8 -21 6 -33
-2 -13 0 -23 5 -23 5 0 8 -11 6 -25 -1 -14 1 -28 5 -30 5 -3 7 -13 5 -23 -1
-9 1 -22 6 -27 4 -6 6 -20 5 -30 -2 -11 -1 -24 3 -30 3 -5 6 -22 7 -37 1 -16
3 -29 4 -30 4 -5 16 -115 26 -258 8 -105 7 -416 -1 -530 -3 -47 -6 -104 -7
-127 -1 -24 -4 -43 -7 -43 -4 0 -7 -21 -8 -48 -2 -44 -4 -65 -18 -137 -3 -16
-7 -43 -10 -60 -2 -16 -7 -41 -10 -55 -3 -14 -7 -36 -10 -50 -3 -14 -7 -36
-11 -50 -3 -14 -7 -34 -9 -45 -2 -11 -4 -20 -5 -20 -2 0 -11 -35 -14 -55 -1
-9 -5 -20 -8 -25 -3 -6 -9 -26 -14 -45 -10 -44 -9 -42 -18 -62 -5 -10 -9 -29
-10 -43 0 -14 -4 -25 -7 -25 -3 0 -13 -26 -23 -57 -29 -93 -99 -267 -111 -275
-5 -4 -6 -8 -2 -8 5 0 1 -10 -7 -22 -9 -12 -16 -30 -16 -40 0 -10 -5 -18 -10
-18 -6 0 -9 -3 -8 -7 1 -5 -6 -24 -17 -43 -10 -19 -20 -42 -21 -50 -2 -8 -8
-16 -13 -18 -6 -2 -11 -10 -11 -17 0 -8 -8 -21 -17 -31 -10 -10 -17 -20 -16
-23 5 -11 -8 -41 -17 -41 -5 0 -12 -10 -16 -22 -13 -42 -213 -342 -258 -389
-9 -9 -16 -19 -16 -22 0 -3 -12 -20 -27 -36 -16 -16 -36 -39 -45 -52 -40 -52
-159 -179 -247 -264 -143 -136 -152 -145 -157 -145 -3 0 -17 -12 -32 -26 -15
-14 -63 -53 -107 -86 -44 -33 -81 -64 -83 -69 -2 -5 -7 -9 -11 -9 -11 0 -235
-151 -243 -164 -4 -6 -8 -8 -8 -4 0 4 -21 -5 -47 -21 -123 -75 -379 -204 -518
-260 -11 -5 -42 -17 -70 -29 -27 -11 -68 -27 -90 -37 -23 -9 -47 -17 -55 -19
-8 -1 -25 -7 -36 -14 -12 -6 -24 -8 -28 -5 -3 3 -6 0 -6 -7 0 -7 -3 -11 -6 -8
-3 4 -21 0 -40 -8 -19 -8 -35 -14 -36 -13 -3 2 -84 -22 -167 -48 -24 -7 -46
-11 -49 -8 -3 2 -10 1 -16 -4 -11 -8 -106 -33 -136 -36 -9 0 -21 -5 -28 -9 -7
-4 -16 -5 -19 -2 -3 3 -13 1 -22 -3 -14 -8 -46 -14 -131 -27 -14 -2 -47 -8
-74 -14 -27 -5 -54 -9 -60 -8 -6 0 -18 -1 -26 -5 -14 -5 -68 -13 -150 -21 -19
-2 -35 -4 -35 -5 0 -1 -25 -4 -55 -6 -30 -3 -82 -7 -115 -10 -33 -2 -97 -6
-142 -7 -46 -1 -83 -5 -83 -9 0 -6 -65 -2 -87 6 -7 2 -13 1 -13 -3 0 -4 -16
-7 -35 -7 -19 0 -35 4 -35 8 0 5 -5 5 -12 1 -17 -11 -138 -11 -138 0 0 5 -6 5
-12 0 -12 -8 -35 -10 -48 -4 -3 1 -43 4 -90 6 -47 1 -101 5 -121 8 l-37 5 -7
-55 c-4 -31 -9 -72 -11 -93 -3 -20 -5 -57 -4 -83 0 -25 -3 -49 -8 -52 -5 -3
-7 -28 -4 -56 2 -27 0 -50 -4 -50 -5 0 -10 -24 -10 -53 -1 -28 -5 -81 -8 -117
-3 -36 -8 -85 -11 -110 -8 -85 -15 -165 -19 -210 -2 -25 -4 -45 -6 -45 -1 0
-3 -25 -5 -55 -2 -30 -6 -69 -7 -87 -4 -28 -1 -32 26 -37 58 -10 241 -26 323
-29 46 -1 83 -5 83 -8 0 -3 124 -6 275 -6 165 0 275 3 275 9 0 5 4 7 8 4 12
-7 77 -8 147 -1 93 9 327 35 355 39 14 3 59 10 100 16 41 7 84 14 95 16 11 3
38 7 60 10 22 4 47 10 56 15 9 4 19 6 22 3 3 -3 12 -2 19 2 7 4 22 9 33 11 35
5 60 10 60 13 0 1 9 3 20 5 37 6 80 16 100 22 11 4 25 8 30 9 25 7 61 15 70
17 6 2 16 6 23 10 6 5 12 5 12 1 0 -3 7 -1 15 6 8 7 15 10 15 6 0 -3 16 0 35
8 19 8 35 13 35 10 0 -2 14 3 30 11 17 9 35 13 40 10 6 -3 10 -2 10 3 0 5 6 9
13 9 14 1 193 65 307 111 91 36 373 164 380 171 3 3 37 22 75 41 39 19 72 37
75 41 3 3 20 12 38 20 17 8 32 18 32 22 0 5 5 5 10 2 6 -3 10 -1 10 5 0 6 4 9
9 5 6 -3 14 2 19 11 5 9 13 16 18 15 11 0 207 119 215 132 3 5 9 8 13 8 8 -2
89 51 98 64 4 5 11 10 15 10 13 0 213 149 213 158 0 4 5 5 10 2 6 -3 13 1 16
9 3 9 10 16 15 16 5 0 17 8 27 18 18 17 33 29 102 85 87 71 154 133 301 279
88 87 159 161 159 164 0 4 6 12 14 18 21 17 234 275 250 305 5 9 16 22 24 30
7 8 58 82 113 165 54 83 104 157 109 164 6 6 8 12 4 12 -4 0 0 8 9 18 10 10
14 22 10 25 -3 4 -2 7 4 7 6 0 21 23 34 50 13 28 27 50 32 50 4 0 6 4 2 9 -3
5 -1 12 4 16 11 6 147 282 182 370 13 33 28 63 32 66 5 3 8 9 8 13 -2 17 12
66 19 66 6 0 22 55 18 63 -1 1 5 13 12 27 8 14 15 34 17 44 2 11 8 25 14 33 6
7 9 13 6 13 -2 0 10 46 29 101 18 56 31 106 28 110 -3 5 0 9 6 9 7 0 10 7 7
15 -4 8 -2 17 4 21 6 3 8 12 5 20 -3 7 -1 16 5 19 5 4 9 12 8 18 -1 7 1 19 4
27 4 8 8 26 10 40 2 14 6 32 9 40 11 29 74 371 76 410 1 8 7 62 15 120 8 58
18 137 21 175 50 576 53 1005 11 1367 -17 144 -52 374 -62 398 -3 8 -7 26 -9
40 -2 14 -6 36 -10 50 -4 14 -7 28 -6 31 0 3 -10 46 -24 95 -14 49 -27 99 -30
111 -2 12 -9 34 -14 48 -5 14 -7 25 -4 25 2 0 -2 14 -11 30 -9 17 -13 30 -9
30 4 0 1 7 -6 15 -7 8 -9 15 -5 15 4 0 2 7 -5 15 -7 8 -9 15 -5 15 4 0 2 7 -5
15 -7 8 -9 15 -5 15 4 0 2 6 -4 13 -6 8 -8 17 -4 20 3 4 1 7 -6 7 -7 0 -11 6
-8 14 3 7 0 19 -6 25 -6 6 -8 11 -3 11 4 0 0 12 -8 28 -12 23 -21 44 -31 72
-35 102 -225 497 -245 510 -5 3 -10 12 -12 20 -2 8 -15 34 -30 57 -16 23 -28
46 -28 52 0 6 -4 11 -10 11 -5 0 -10 5 -10 10 0 6 -37 65 -82 132 -46 66 -87
128 -93 136 -5 9 -17 25 -27 36 -9 12 -46 59 -82 106 -37 47 -81 101 -99 121
-18 19 -66 73 -107 119 -92 102 -231 240 -242 240 -4 0 -8 7 -8 15 0 8 -5 15
-12 15 -7 0 -22 10 -33 23 -25 27 -142 129 -210 183 -28 21 -57 45 -65 51 -47
39 -79 63 -84 63 -4 0 -17 11 -30 25 -13 14 -28 25 -33 25 -5 0 -18 8 -29 18
-23 22 -289 197 -359 238 -27 15 -51 32 -53 36 -2 4 -12 8 -23 8 -10 0 -19 3
-19 8 0 9 -65 45 -76 42 -4 -1 -10 3 -13 8 -7 10 -67 43 -77 41 -4 0 -10 3
-13 8 -7 10 -248 130 -271 135 -8 2 -17 5 -20 8 -3 3 -41 21 -85 40 -44 19
-83 39 -87 45 -4 5 -8 7 -8 3 0 -7 -41 7 -115 37 -11 5 -22 9 -25 10 -3 1 -14
5 -25 9 -11 4 -31 12 -45 16 -14 4 -34 12 -45 16 -11 4 -22 8 -25 8 -3 1 -11
5 -18 10 -7 4 -16 5 -19 2 -3 -3 -11 -1 -18 4 -6 5 -22 12 -36 14 -13 3 -25 5
-26 7 -2 1 -6 2 -10 3 -5 2 -28 8 -53 15 -25 7 -52 15 -60 16 -8 2 -40 10 -70
18 -53 15 -228 53 -287 63 -225 38 -417 62 -648 79 -87 7 -451 15 -457 11z"/>
<path d="M4867 11764 c-4 -4 -51 -9 -172 -19 -94 -8 -155 -14 -183 -20 -12 -2
-52 -7 -89 -10 -37 -4 -70 -9 -73 -10 -3 -2 -33 -7 -65 -10 -33 -4 -67 -11
-76 -16 -9 -4 -18 -6 -21 -4 -2 2 -20 0 -39 -5 -19 -5 -47 -12 -64 -14 -16 -3
-40 -8 -52 -11 -13 -3 -33 -7 -45 -10 -19 -4 -59 -13 -90 -21 -5 -1 -11 -3
-15 -4 -5 -1 -12 -2 -16 -1 -4 1 -16 -3 -25 -8 -9 -5 -30 -11 -47 -14 -16 -3
-42 -10 -57 -16 -16 -6 -28 -8 -28 -5 0 4 -7 1 -15 -6 -8 -7 -15 -10 -15 -6 0
4 -13 0 -30 -9 -16 -8 -33 -15 -37 -14 -4 1 -11 0 -15 -1 -5 -1 -12 -4 -18 -5
-5 -1 -12 -4 -15 -5 -3 -1 -9 -4 -15 -5 -5 -1 -12 -4 -15 -5 -3 -1 -9 -4 -15
-5 -5 -1 -12 -4 -15 -5 -3 -1 -9 -4 -15 -5 -5 -1 -12 -4 -15 -5 -3 -1 -8 -3
-12 -5 -9 -2 -34 -11 -83 -30 -42 -17 -72 -25 -84 -24 -5 0 -12 -3 -15 -8 -3
-4 -55 -28 -116 -52 -131 -53 -317 -141 -327 -156 -4 -5 -8 -6 -8 -2 0 4 -24
-5 -52 -21 -29 -16 -81 -44 -116 -62 -34 -18 -65 -36 -68 -41 -3 -5 -10 -7
-15 -4 -5 4 -9 2 -9 -3 0 -5 -8 -12 -17 -15 -18 -6 -73 -37 -83 -47 -10 -10
-65 -41 -82 -47 -10 -3 -18 -9 -18 -13 0 -4 -13 -13 -30 -20 -16 -7 -30 -16
-30 -21 0 -5 -5 -9 -11 -9 -13 0 -213 -139 -217 -151 -2 -5 -10 -9 -18 -9 -8
0 -17 -7 -20 -15 -4 -8 -10 -12 -15 -9 -5 3 -9 0 -9 -5 0 -6 -7 -11 -16 -11
-8 0 -12 -4 -9 -10 3 -5 2 -10 -3 -10 -10 0 -130 -93 -147 -114 -5 -6 -20 -19
-32 -27 -86 -59 -388 -358 -513 -509 -25 -29 -57 -67 -73 -83 -15 -17 -27 -36
-27 -44 0 -8 -4 -11 -10 -8 -5 3 -10 3 -10 -2 0 -4 -10 -20 -23 -35 -26 -31
-200 -276 -207 -292 -3 -6 -24 -40 -47 -76 -23 -36 -42 -69 -42 -73 0 -4 -7
-15 -16 -23 -8 -9 -15 -22 -15 -30 0 -8 -4 -14 -9 -14 -5 0 -11 -8 -14 -17 -5
-16 -43 -86 -87 -163 -8 -14 -15 -27 -15 -30 -1 -3 -19 -41 -39 -85 -60 -125
-116 -257 -116 -272 0 -7 -5 -13 -12 -13 -6 0 -9 -3 -6 -6 3 -3 -5 -33 -19
-67 -13 -34 -26 -66 -27 -72 -1 -5 -11 -35 -21 -65 -11 -30 -20 -57 -20 -60
-1 -3 -5 -12 -8 -20 -4 -8 -8 -24 -10 -35 -1 -11 -6 -25 -9 -31 -4 -6 -10 -26
-13 -44 -3 -18 -10 -40 -14 -49 -5 -9 -9 -20 -10 -26 -1 -5 -4 -26 -8 -45 -9
-46 -10 -49 -13 -55 -1 -3 -4 -9 -5 -15 -1 -5 -4 -12 -5 -15 -3 -6 -4 -9 -13
-55 -4 -19 -9 -46 -12 -60 -8 -36 -16 -82 -20 -105 -1 -11 -5 -27 -8 -35 -4
-8 -9 -33 -12 -55 -3 -22 -12 -80 -20 -130 -8 -49 -17 -110 -19 -135 -3 -25
-14 -121 -25 -215 -37 -312 -45 -458 -45 -775 0 -277 5 -368 30 -585 18 -162
58 -377 99 -540 32 -127 33 -130 35 -130 1 0 3 -11 6 -24 2 -14 12 -45 20 -70
9 -25 17 -53 19 -61 2 -8 4 -17 5 -20 1 -3 2 -8 1 -12 0 -5 4 -8 11 -8 6 0 9
-3 6 -6 -4 -3 0 -20 7 -39 8 -18 11 -35 8 -39 -4 -3 -1 -6 5 -6 7 0 11 -3 11
-7 -4 -19 15 -73 24 -73 6 0 8 -3 4 -6 -3 -4 2 -23 13 -44 11 -21 16 -40 13
-44 -4 -3 -1 -6 6 -6 6 0 11 -6 10 -12 -3 -20 142 -327 183 -389 10 -14 15
-28 12 -31 -2 -3 2 -11 11 -18 8 -7 15 -19 15 -26 0 -8 4 -14 8 -14 4 0 13
-12 19 -28 7 -15 18 -36 25 -47 7 -10 48 -73 92 -140 118 -180 239 -339 379
-499 96 -109 449 -456 464 -456 3 0 10 -6 17 -12 7 -7 32 -29 56 -48 24 -19
53 -44 65 -55 12 -11 39 -32 61 -47 21 -15 51 -38 66 -50 15 -13 50 -39 78
-58 28 -19 60 -43 71 -53 10 -9 21 -17 23 -17 4 0 256 -165 271 -178 12 -10
15 -11 43 -18 12 -4 22 -10 22 -14 0 -4 21 -18 48 -31 26 -13 49 -27 50 -31 2
-5 12 -8 23 -8 10 0 19 -4 19 -10 0 -5 4 -10 9 -10 5 0 37 -16 70 -34 34 -19
61 -33 61 -30 0 3 7 -2 16 -10 8 -9 20 -14 25 -11 5 4 9 2 9 -3 0 -8 28 -20
47 -20 3 0 9 -4 12 -9 3 -5 31 -20 61 -32 30 -13 82 -36 115 -51 71 -32 120
-52 120 -50 0 0 26 -10 58 -25 32 -14 66 -27 75 -29 9 -1 30 -8 45 -14 16 -7
35 -12 43 -12 8 0 14 -5 14 -11 0 -5 5 -7 10 -4 6 4 18 1 27 -7 9 -7 17 -11
17 -9 1 3 81 -16 106 -26 8 -3 20 -7 25 -8 6 -2 30 -8 55 -15 25 -7 52 -14 60
-15 8 -1 23 -6 34 -10 10 -4 31 -8 47 -9 16 -1 29 -4 29 -7 0 -4 21 -10 48
-14 26 -5 52 -9 57 -11 30 -8 221 -44 290 -54 44 -6 91 -13 105 -16 52 -8 309
-33 410 -40 254 -16 649 -4 910 27 73 8 126 16 305 46 17 2 48 9 70 14 22 5
55 12 74 15 19 2 38 7 43 10 4 3 18 7 31 10 44 8 102 22 102 24 0 2 36 10 58
12 9 1 17 6 17 10 0 4 7 5 15 2 8 -4 15 -1 15 6 0 6 4 9 9 6 5 -4 22 -1 38 5
15 6 37 13 48 15 31 8 38 10 70 23 32 14 62 22 83 23 6 1 12 4 12 7 0 7 85 34
96 31 4 -1 10 3 13 9 4 6 16 12 26 14 11 2 43 14 70 26 28 13 55 24 60 25 6 2
33 13 60 26 28 13 52 24 55 25 3 0 19 9 37 18 18 9 39 17 47 17 8 0 16 3 18 8
5 11 148 84 148 75 0 -4 4 -3 8 3 4 6 39 28 77 49 103 57 350 212 382 240 6 5
52 39 102 74 50 36 91 68 91 73 0 4 6 8 14 8 8 0 16 3 18 8 2 4 44 40 93 81
50 41 107 92 128 113 21 21 40 38 42 38 11 0 232 229 337 351 26 29 53 60 60
68 7 8 23 29 36 45 22 30 51 67 102 130 14 17 37 48 50 68 14 21 28 38 33 38
4 0 7 7 7 15 0 8 5 15 11 15 5 0 8 4 5 9 -4 5 -2 11 3 13 5 1 41 53 80 113 38
61 74 115 78 121 9 11 8 9 99 170 36 66 67 125 67 132 0 6 3 12 7 12 6 0 111
210 115 230 2 8 45 102 60 130 7 14 13 28 14 33 0 4 8 21 16 37 9 17 13 30 9
30 -4 0 -2 6 3 13 8 10 44 97 49 117 0 3 6 19 13 35 7 17 15 37 17 45 2 8 27
83 55 165 27 83 51 158 52 168 1 9 5 17 10 17 4 0 6 4 3 8 -3 5 2 27 10 51 8
23 16 51 17 61 2 11 6 22 9 26 4 3 4 12 2 19 -3 7 0 16 5 20 6 3 9 10 6 15 -3
5 -1 11 4 14 5 3 7 15 4 26 -3 12 0 20 6 20 7 0 9 5 6 10 -3 6 -3 15 1 22 4 7
9 23 10 35 2 13 8 49 15 81 7 31 12 63 10 70 -1 6 2 12 8 12 5 0 9 10 8 23 0
12 3 36 6 52 14 69 20 102 22 130 2 17 4 30 5 30 2 0 4 14 6 30 2 17 6 53 10
80 3 28 7 65 7 83 1 17 4 32 7 32 3 0 7 24 8 53 1 28 5 79 7 112 3 33 7 117 8
186 2 69 7 131 11 137 4 7 4 12 -1 12 -10 0 -10 131 0 148 5 6 5 12 0 12 -4 0
-9 46 -10 102 -1 106 -9 253 -13 253 -1 0 -3 23 -5 50 -2 28 -6 68 -9 90 -3
22 -8 60 -11 85 -3 25 -8 61 -11 80 -3 19 -7 49 -9 65 -2 17 -4 30 -5 30 -2 0
-4 11 -5 25 -2 14 -6 37 -9 53 -3 15 -8 38 -10 52 -3 13 -12 62 -22 107 -9 46
-18 90 -19 98 -2 8 -4 15 -6 15 -1 0 -3 9 -5 20 -6 41 -10 55 -17 61 -4 4 -7
18 -7 31 0 23 -3 24 -32 17 -18 -4 -43 -8 -55 -8 -13 0 -23 -2 -23 -6 0 -3
-12 -6 -27 -7 -26 -2 -53 -6 -128 -19 -28 -4 -56 -9 -115 -18 -14 -2 -26 -5
-27 -6 -2 -1 -16 -4 -33 -5 -16 -1 -31 -4 -32 -5 -2 -1 -16 -4 -33 -6 -16 -2
-43 -6 -60 -8 -16 -2 -30 -5 -30 -6 0 -3 -57 -11 -92 -12 -18 -1 -33 -5 -33
-10 0 -5 -12 -8 -27 -7 -48 1 -113 -13 -107 -23 4 -6 -2 -5 -13 1 -11 6 -23 8
-26 4 -3 -3 -19 -7 -34 -9 -15 -2 -39 -6 -53 -8 -14 -3 -43 -8 -65 -11 -35 -5
-75 -25 -49 -25 5 0 11 -10 12 -22 3 -28 10 -63 13 -63 1 0 3 -9 5 -20 1 -11
5 -31 9 -45 3 -14 8 -38 11 -55 8 -45 10 -57 18 -95 4 -19 9 -48 11 -65 2 -16
5 -30 6 -30 1 0 3 -16 5 -35 2 -19 6 -48 8 -65 8 -51 18 -128 21 -162 1 -17 6
-37 10 -44 5 -8 4 -10 -3 -5 -9 5 -10 1 -3 -16 4 -13 9 -56 10 -97 1 -40 6
-84 11 -97 5 -13 6 -24 2 -24 -6 0 -7 -132 -1 -150 1 -3 0 -9 -1 -15 -2 -12
-2 -217 1 -230 1 -5 1 -14 0 -18 -1 -4 -4 -54 -7 -110 -3 -56 -7 -122 -10
-147 -2 -25 -6 -65 -8 -90 -8 -91 -15 -145 -41 -300 -4 -25 -8 -54 -10 -65 -1
-11 -3 -20 -5 -20 -1 0 -3 -9 -5 -20 -4 -27 -14 -72 -26 -120 -5 -22 -12 -51
-15 -65 -7 -34 -34 -131 -41 -150 -4 -8 -7 -18 -8 -22 -2 -5 -4 -11 -5 -15 -1
-5 -3 -12 -5 -18 -1 -5 -3 -13 -5 -17 -1 -5 -4 -12 -5 -18 -1 -5 -4 -12 -5
-15 -1 -3 -3 -8 -5 -12 -1 -5 -7 -21 -14 -37 -6 -16 -13 -36 -15 -45 -2 -9 -8
-27 -13 -41 -6 -14 -21 -50 -32 -80 -12 -30 -33 -79 -46 -108 -14 -29 -25 -55
-25 -58 0 -3 -32 -69 -71 -147 -80 -159 -207 -377 -220 -377 -5 0 -8 -4 -7 -8
3 -10 0 -15 -121 -179 -50 -68 -121 -158 -157 -200 -95 -111 -323 -336 -429
-424 -49 -41 -96 -80 -103 -86 -7 -7 -17 -13 -20 -13 -4 0 -18 -10 -32 -23
-34 -32 -300 -206 -382 -250 -37 -20 -95 -51 -130 -69 -35 -17 -66 -36 -70
-42 -4 -6 -8 -8 -8 -3 0 4 -19 -3 -42 -15 -24 -12 -52 -23 -62 -25 -11 -2 -27
-10 -36 -18 -9 -8 -21 -15 -27 -15 -6 0 -28 -8 -49 -17 -22 -10 -43 -18 -49
-18 -5 0 -14 -3 -20 -7 -21 -13 -125 -46 -125 -40 0 4 -4 2 -8 -4 -8 -14 -112
-45 -124 -38 -4 3 -8 1 -8 -4 0 -8 -51 -24 -85 -27 -5 0 -15 -4 -21 -7 -6 -4
-21 -9 -35 -12 -13 -2 -78 -17 -144 -31 -66 -15 -132 -27 -147 -27 -16 0 -28
-3 -28 -7 0 -3 -15 -7 -33 -8 -17 -1 -54 -5 -82 -8 -27 -4 -66 -8 -85 -10 -19
-1 -35 -4 -35 -5 0 -5 -191 -11 -355 -11 -164 0 -345 6 -345 12 0 1 -18 3 -40
5 -49 4 -66 7 -82 17 -6 4 -14 3 -18 -3 -4 -7 -12 -7 -26 0 -10 6 -19 9 -19 6
0 -2 -15 0 -32 4 -30 8 -99 20 -138 24 -9 1 -20 5 -25 8 -6 3 -28 9 -50 13
-22 5 -44 9 -50 11 -5 2 -19 5 -30 8 -11 3 -35 9 -52 15 -18 5 -33 8 -33 5 0
-2 -15 3 -32 12 -18 9 -44 18 -58 20 -14 1 -63 17 -110 34 -47 18 -95 35 -107
37 -13 3 -23 10 -23 15 0 5 -4 7 -8 4 -5 -3 -53 15 -108 40 -54 25 -103 46
-109 48 -25 5 -314 157 -357 187 -14 11 -31 19 -37 19 -6 0 -11 5 -11 10 0 6
-5 10 -11 10 -6 0 -30 14 -54 30 -24 17 -49 30 -55 30 -6 0 -8 5 -5 10 3 6 0
10 -8 10 -17 0 -268 182 -313 228 -7 6 -15 12 -18 12 -3 0 -16 10 -29 23 -13
12 -54 49 -91 82 -203 181 -428 433 -581 651 -22 31 -44 62 -50 68 -5 7 -17
23 -25 36 -8 14 -49 81 -92 149 -43 69 -78 130 -78 137 0 7 -4 14 -8 16 -12 5
-141 266 -134 272 3 3 0 6 -6 6 -7 0 -12 7 -12 15 0 8 -13 42 -29 75 -16 33
-27 60 -25 60 3 0 -2 13 -11 29 -31 60 -124 360 -139 448 -1 7 -5 15 -8 19 -4
3 -4 12 -1 20 3 8 1 14 -3 14 -5 0 -10 10 -11 23 -5 43 -10 82 -13 85 -1 1 -3
10 -4 20 -1 9 -5 23 -9 30 -5 6 -5 17 -2 22 3 6 3 15 -1 22 -4 6 -9 26 -11 42
-1 17 -5 49 -8 71 -3 22 -7 60 -9 85 -2 25 -5 45 -6 45 -11 0 -16 540 -6 665
7 95 18 196 32 285 3 22 6 50 7 63 0 12 4 22 8 22 4 0 6 8 5 17 -2 10 1 33 6
53 5 19 11 46 13 60 7 44 15 79 25 105 5 14 8 25 5 25 -2 0 2 18 10 40 8 22
12 40 9 40 -2 0 0 8 5 18 6 11 12 30 15 43 2 13 23 78 46 144 23 66 43 125 44
130 2 6 11 27 20 47 9 21 15 39 14 40 -2 2 8 20 20 41 13 20 21 37 17 37 -3 0
0 10 7 23 6 12 13 28 14 35 1 8 10 22 18 31 9 10 16 25 16 34 0 8 7 22 15 31
9 8 15 17 14 18 -2 6 26 64 38 76 12 12 15 21 12 38 0 4 3 10 9 13 5 3 27 38
49 76 51 88 186 288 214 318 11 12 28 34 37 50 9 15 20 27 24 27 4 0 8 7 8 15
0 8 4 15 8 15 4 0 36 33 70 74 127 151 321 334 502 476 36 27 74 57 85 66 36
28 274 184 281 184 4 0 15 6 23 14 9 8 41 27 71 42 30 15 57 30 60 33 8 9 183
95 198 97 8 2 22 10 31 18 10 9 22 16 27 16 5 0 52 19 104 41 52 23 100 42
105 44 6 1 24 8 40 15 17 7 36 12 43 11 6 -1 12 3 12 9 0 6 5 8 10 5 6 -3 10
-1 10 5 0 6 5 8 10 5 6 -3 16 -3 23 2 20 12 137 52 137 46 0 -3 6 -1 13 5 6 5
28 13 47 18 50 11 50 11 53 14 1 1 9 3 17 5 8 2 78 20 155 40 77 19 157 36
177 38 21 1 38 5 38 10 0 4 15 7 34 7 19 0 38 5 41 10 5 7 11 8 19 1 7 -6 17
-6 26 -1 8 5 45 12 83 16 37 4 67 9 67 13 0 3 19 7 43 7 86 2 157 9 157 15 0
3 23 4 50 1 28 -2 50 0 50 4 0 19 607 18 791 -1 29 -3 81 -7 114 -10 33 -2 60
-4 60 -5 0 -1 12 -3 27 -4 18 -2 27 2 27 13 0 9 3 39 7 66 3 28 7 62 7 78 1
15 4 27 7 27 4 0 6 15 5 33 -2 17 0 37 4 42 3 6 6 24 7 40 1 17 2 32 4 35 1 3
4 19 6 35 5 48 19 160 30 235 4 25 7 62 8 82 0 21 4 38 7 38 3 0 6 15 7 33 1
17 3 48 6 67 16 108 20 139 20 173 1 20 4 37 7 37 3 0 6 14 7 30 1 26 -3 30
-26 32 -40 2 -54 4 -82 11 -14 4 -45 9 -70 12 -25 2 -103 11 -175 19 -71 8
-163 16 -203 17 -41 2 -76 7 -78 11 -3 5 -10 6 -15 2 -14 -8 -134 -8 -148 0
-6 4 -11 3 -11 -3 0 -7 -9 -7 -22 -3 -25 9 -205 9 -213 0 -4 -3 -21 -2 -39 2
-19 4 -39 4 -46 0 -6 -4 -29 -4 -50 0 -22 4 -41 6 -43 4z"/>
</g>
</svg>
